<?xml version="1.0" encoding="utf-8"?><!DOCTYPE svg  PUBLIC '-//W3C//DTD SVG 1.1//EN'  'http://www.w3.org/Graphics/SVG/1.1/DTD/svg11.dtd'><svg enable_background="new 0 0 1000 2125" height="2125px" pretty_print="False" style="stroke-linejoin: round; stroke:#000; fill: none;" version="1.1" viewBox="0 0 1000 2125" width="1000px" xmlns="http://www.w3.org/2000/svg" xmlns:xlink="http://www.w3.org/1999/xlink"><defs><style type="text/css"><![CDATA[path { fill-rule: evenodd; }]]></style></defs><metadata><views><view h="2125.23174966" padding="0" w="1000"><proj flip="auto" id="robinson" lon0="143.327554987"/><bbox h="324.28" w="152.66" x="1808.68" y="-761.6"/></view></views></metadata><g class="" id="world"><path d="M647.488237,1317.641351L656.398311,1305.115173L655.418470,1299.459102L657.581053,1268.834064L668.130471,1256.612014L658.277788,1246.834998L660.032067,1243.156200L664.036841,1245.915478L665.930028,1243.523821L661.683595,1239.352780L662.859622,1235.518594L677.445300,1229.781681L676.284606,1224.716455L684.851181,1226.220549L687.591633,1217.778028L692.359324,1218.637113L692.221556,1222.998044L705.282839,1221.124279L705.980414,1224.441168L699.997517,1224.778426L700.170471,1226.252585L707.997243,1227.632618L711.023185,1224.379196L705.239849,1212.679497L704.620360,1206.901952L696.947919,1201.953549L661.220448,1188.175407L655.128911,1178.017253L654.053750,1172.042304L658.004256,1160.084862L653.181890,1146.667348L656.384879,1141.668159L670.620915,1136.203442L670.989076,1150.000189L673.286109,1156.477084L681.047031,1164.924250L682.429611,1172.011422L687.936957,1175.614799L696.964020,1178.479429L687.362493,1168.869199L684.886395,1160.917228L685.847739,1152.838709L692.329411,1165.325905L700.458484,1170.841261L714.309849,1166.312429L724.603221,1169.361711L729.838267,1176.170515L717.406181,1182.450661L708.164197,1183.835455L707.038331,1190.667483L708.846847,1192.174865L744.233477,1182.112474L791.104770,1182.481520L816.939545,1190.267799L812.976104,1186.482517L810.790455,1180.942287L816.178909,1165.355954L812.738487,1160.363452L813.583616,1154.811768L824.685698,1146.019754L821.743048,1145.370856L822.585108,1133.361043L833.532490,1130.054730L840.805727,1131.661949L856.208936,1140.125265L856.255635,1142.902686L846.613485,1144.384100L859.249627,1178.910723L867.149963,1185.866757L873.800668,1188.944032L878.966538,1184.082726L880.638870,1174.351880L885.553907,1157.803857L883.908103,1151.789373L871.539854,1137.530914L871.384257,1129.468313L873.991440,1129.004510L869.709610,1123.318017L870.018330,1117.196208L877.329081,1111.690134L891.682738,1110.051921L904.582675,1113.639969L916.603102,1129.807776L921.435150,1128.418476L921.396646,1115.680880L914.231232,1113.826019L904.241382,1100.519809L908.402576,1098.599484L901.459966,1092.809621L911.329841,1086.552937L906.600453,1081.503649L904.253303,1073.351995L915.836273,1074.870883L917.165783,1070.902305L924.365378,1071.274843L938.245645,1081.007458L939.111914,1084.384800L928.064329,1098.352042L931.448528,1105.904678L922.266538,1110.639930L929.479124,1112.866010L935.622127,1120.041298L933.774357,1126.749783L946.001222,1144.568486L939.794048,1149.506989L951.083613,1156.107361L958.437488,1153.578322L957.259139,1142.192592L981.593245,1129.282879L983.681482,1117.876530L974.024662,1101.014630L972.564376,1087.792188L976.299213,1077.505264L984.453848,1068.701010L999.764621,1067.150604L953.830413,1021.838424L942.999104,1004.722168L941.757838,991.142009L937.125761,985.237780L933.927088,973.052778L930.464987,931.332752L938.047748,927.664383L939.193933,921.882239L922.976961,878.567951L905.755433,847.834083L889.511012,829.721642L874.311888,805.027498L869.670628,786.026764L872.983768,775.328228L868.438506,773.382271L870.317900,768.191210L880.286200,773.813882L878.230398,766.801050L899.143774,766.552898L901.600387,771.126388L914.911733,779.099481L909.480844,768.839460L902.164183,763.896878L900.274839,757.320950L903.441749,755.499979L900.737779,750.006798L891.245184,745.503983L893.907319,738.536059L885.260833,734.775778L891.629518,729.293011L884.016793,722.642276L887.760358,717.873010L883.200016,711.689766L884.968615,710.368078L891.837442,714.180721L880.605177,698.444915L885.590342,698.444915L890.171853,703.943557L891.936758,702.622839L886.854214,694.391386L898.476259,695.404931L893.710051,691.967136L899.346665,686.167965L890.179303,681.476140L895.402251,678.074005L889.601912,675.836895L894.916590,672.833890L887.368930,667.812431L891.753598,663.374465L890.119517,659.611564L884.598464,661.875330L884.419022,655.422904L890.281636,651.113338L887.029503,645.034665L884.838441,648.913651L880.416580,646.836582L885.275292,637.467321L875.141169,627.193079L872.075390,632.556696L870.426546,625.823469L845.955996,588.755789L841.433217,587.270590L829.552651,578.215948L829.539727,571.985638L820.732628,567.513983L821.710152,563.888566L816.757010,558.757173L778.368638,530.233382L772.186319,530.564507L762.833019,522.841557L723.964665,469.125711L711.453228,437.947497L708.154097,435.566947L706.815585,440.001524L699.333610,443.067966L689.630533,440.656442L678.763859,432.919319L671.552822,429.052790L652.107970,423.373442L659.931795,454.478889L666.035334,464.648610L669.982045,466.350182L673.274893,463.007152L689.133586,460.501649L693.848936,451.437748L700.349710,454.836272L710.204317,463.454982L716.721313,480.506408L718.288367,493.636868L715.008441,494.565920L690.165119,481.463257L685.433221,482.239975L691.263205,491.333155L690.262282,497.828657L684.992444,498.786944L678.301374,495.492603L670.189843,487.563417L650.472469,459.517401L640.857983,455.850360L635.412559,460.053954L626.464177,454.956222L620.494348,453.613934L626.061444,465.066599L621.671411,466.140748L630.063349,470.766974L641.454888,481.702177L634.404140,478.354575L643.160132,500.374313L641.010731,504.150782L625.352167,506.818107L620.789575,524.253616L628.935241,527.708698L633.873409,532.729547L639.874887,543.473599L653.165593,553.146092L660.295649,565.580339L662.855357,585.573606L660.480663,591.574248L656.602070,592.422383L645.500776,588.481955L646.985546,592.058884L658.981875,603.407425L672.252170,599.885990L680.416678,603.832816L689.535838,611.977182L706.917294,640.090118L713.332820,661.080488L710.070299,668.761338L715.133376,680.065802L725.090783,721.473544L719.917409,746.983849L732.205535,791.872281L724.365637,809.455444L702.942722,823.397550L698.972144,834.371813L703.308059,855.622781L698.748537,878.070633L696.003582,881.021371L663.213479,909.760848L621.875341,929.902618L624.538976,944.047384L617.319949,948.742401L596.247569,944.761646L585.041550,936.617539L585.288068,928.970264L577.671791,910.320390L562.860996,913.180060L560.056554,896.367580L571.482538,900.158535L574.558899,888.756286L583.715550,888.507136L584.497294,883.443383L579.224683,878.722352L579.001723,873.628773L586.295460,871.020646L580.391298,862.948554L572.930203,862.389657L541.364628,878.722352L536.461838,884.500021L541.610445,905.254392L558.929096,924.401242L564.757246,939.384013L564.949207,959.032410L556.037489,991.049393L551.174546,995.587010L539.263252,1022.273477L539.463360,1037.178804L562.095225,1058.902013L565.645654,1071.646522L561.122714,1069.321823L560.592758,1065.600092L555.769157,1061.196679L552.798821,1065.228311L557.991858,1075.738831L543.607283,1073.383072L549.248941,1080.015465L547.812789,1086.181954L538.517474,1081.905359L537.168516,1084.106107L544.163286,1088.226098L541.750631,1090.858699L534.299431,1089.217248L533.927762,1084.260133L528.153550,1089.186196L517.563880,1085.716514L512.990340,1078.404596L505.139544,1083.114694L505.717612,1085.468899L513.295075,1090.889749L507.082720,1094.978061L504.603557,1087.234471L495.897641,1084.384800L495.904412,1081.596417L492.107668,1083.144480L493.330557,1066.902768L482.246617,1058.963354L477.807741,1060.048734L459.541575,1073.351995L429.833321,1072.360062L408.456698,1079.643934L372.554728,1089.186196L346.442103,1086.367872L339.645233,1087.760708L333.486093,1094.203253L325.335255,1093.615959L317.900777,1089.837435L314.098261,1084.447346L319.256100,1081.007458L312.432055,1082.153019L297.338297,1078.931069L295.058651,1083.517223L266.828977,1094.854315L263.563866,1098.259781L270.533525,1103.181640L270.664641,1112.030841L259.315260,1121.525207L255.819243,1131.075598L245.006462,1144.167495L233.610807,1164.863302L204.951898,1187.898202L199.728420,1208.500570L184.390966,1213.845973L183.040871,1206.994802L179.351661,1210.128982L179.938263,1214.214249L159.460424,1207.608859L158.336224,1211.511248L164.241463,1211.327712L166.521953,1214.092756L161.337168,1215.228335L156.979558,1218.422452L167.968731,1235.948309L165.143025,1243.647201L175.083376,1256.766439L174.545602,1261.514275L178.927163,1263.964485L183.943066,1250.145543L211.033826,1263.351228L216.028802,1255.263782L217.671703,1250.851857L220.248523,1257.194364L224.688287,1254.283263L232.181054,1255.233063L248.706512,1248.674735L257.861094,1252.843526L255.986138,1255.325642L257.027517,1258.941302L260.687768,1254.620770L290.374108,1269.293662L292.451490,1273.518231L289.263953,1277.527916L296.533626,1271.956412L289.138955,1260.993904L291.698574,1260.411677L294.435127,1255.080728L290.147956,1247.877821L289.300643,1237.451382L283.820939,1228.308682L287.345274,1219.804417L294.322674,1214.276260L306.900149,1217.040789L316.053969,1233.556088L325.771880,1232.358585L335.353315,1220.510746L339.172659,1222.966844L356.930019,1217.071578L355.751883,1212.341140L361.613796,1212.771047L364.900264,1215.320291L362.589867,1220.357254L359.416810,1216.427100L358.021930,1221.678336L362.574019,1226.927442L370.698498,1220.787366L366.428737,1216.487837L370.352903,1207.947318L378.029633,1214.552566L376.167742,1219.558987L381.763321,1215.228335L382.229767,1202.999250L407.473685,1197.034378L418.852273,1206.932761L430.942155,1204.382572L434.423770,1190.821270L432.000568,1190.272024L424.132025,1192.421574L424.344266,1189.836838L441.441689,1189.959790L447.493227,1178.386403L461.422075,1174.783298L462.953901,1170.625071L474.686626,1170.255721L491.119145,1170.903452L516.498831,1184.635583L528.471974,1185.528649L534.952655,1180.448903L546.760517,1175.769167L560.661398,1184.759847L564.640007,1194.327521L560.778690,1205.980183L542.570129,1222.261888L543.294393,1226.098726L561.299259,1239.231474L556.204243,1241.683534L563.513526,1252.046801L559.522681,1257.011330L562.131632,1268.558216L569.127548,1268.405152L578.308295,1276.517483L591.334786,1281.995204L601.241753,1288.266574L597.498950,1292.702842L608.454950,1301.935135L647.054718,1314.617159L647.488237,1317.641351Z M16.674545,1222.046431L19.085438,1218.975336L15.058115,1211.818824L15.078255,1204.628239L16.582629,1190.575379L11.625887,1186.482517L15.638147,1185.159680L10.422059,1178.798673L5.054430,1185.097550L0.235379,1184.512587L0.690526,1193.036217L5.432269,1196.634863L5.952979,1216.886842L14.845852,1215.290342L16.674545,1222.046431Z M518.536370,1234.199890L524.018516,1232.819563L532.278981,1224.165032L526.744141,1219.129264L521.252511,1208.407729L524.058999,1195.961661L524.418931,1191.036316L519.162033,1190.482430L504.975305,1221.799770L506.761618,1225.914514L518.536370,1234.199890Z M271.674597,1899.476809L276.819061,1888.925535L271.488906,1884.747581L292.731901,1864.320115L287.990444,1857.503155L269.849005,1869.289608L259.095725,1872.277100L252.141069,1879.838519L258.210144,1881.881293L256.318501,1885.204227L252.682166,1884.138304L247.199010,1886.333815L258.569331,1887.858519L260.584139,1892.553818L271.674597,1899.476809Z M204.887801,1398.177444L194.971217,1404.784575L197.321700,1406.428413L213.012474,1403.261067L214.102997,1407.676705L208.781450,1413.002952L213.865884,1425.722949L200.836219,1462.946088L194.462137,1460.513089L192.989754,1464.739449L195.960764,1467.383453L195.101153,1473.401460L203.043970,1482.792365L206.766052,1499.775741L226.831045,1514.265176L231.691386,1532.973416L227.232312,1541.870939L219.925116,1537.134185L216.517611,1539.137998L232.145345,1553.804918L233.738124,1556.597693L257.005839,1557.904105L269.357938,1566.406083L273.736101,1563.946556L273.097496,1555.050047L261.073167,1548.066018L251.049763,1533.854416L250.539897,1510.104537L254.185632,1504.241870L267.735598,1507.765403L270.821455,1517.393503L268.846516,1523.012346L265.558680,1522.434898L263.532799,1517.514880L258.662735,1515.693166L253.657370,1518.852102L254.466053,1521.554852L264.317012,1524.409552L283.053544,1548.703195L285.927189,1569.958481L281.959519,1575.514611L284.085965,1583.864433L304.648234,1570.353144L312.395867,1549.948353L306.013650,1546.122364L300.628955,1545.029181L302.128066,1535.221048L314.341934,1533.125220L322.019167,1541.658886L330.137075,1543.420146L331.390472,1529.997364L327.376887,1523.012346L329.230198,1509.101731L327.261560,1496.616056L319.339990,1487.228125L314.175767,1432.020296L316.340434,1428.431609L313.462616,1424.067907L318.174652,1423.501725L319.196987,1420.824460L313.463854,1417.628781L311.807030,1410.446944L315.310434,1410.599097L325.405381,1388.066687L329.412988,1384.776561L324.455053,1384.044024L330.881462,1372.741502L317.155487,1370.547085L312.743173,1367.315616L313.428125,1360.792050L320.085224,1359.938281L312.569949,1355.699589L306.439498,1357.468099L307.516048,1351.978742L299.061358,1352.314662L300.481870,1337.029388L270.946811,1337.640030L264.717524,1335.899847L259.712085,1328.176427L260.773400,1325.582645L266.510790,1327.199496L274.492066,1319.137980L272.444905,1305.573082L260.760030,1293.435685L249.716650,1290.683502L245.173374,1291.784336L241.766781,1302.179448L209.627607,1297.288443L187.572349,1275.476311L187.076446,1261.422570L184.770431,1260.013278L179.373211,1267.793305L158.572408,1261.605980L141.809706,1275.568787L146.175898,1284.382235L138.060682,1292.671764L140.694079,1293.649443L144.801185,1291.448758L146.459520,1295.851145L143.599356,1300.559458L131.371860,1297.563881L127.005366,1292.610028L119.417050,1300.865498L122.706499,1305.144973L127.581367,1304.838996L118.994451,1315.411318L111.194042,1313.302727L110.800548,1309.270403L99.790765,1305.389248L104.632800,1316.450434L98.382476,1313.150008L98.292029,1316.510842L108.025285,1322.253813L110.477930,1333.854800L98.747607,1325.215315L94.002820,1327.413753L83.402856,1324.085193L83.472312,1330.405602L87.161394,1341.850809L99.108699,1347.219657L101.500679,1354.023097L108.528329,1349.873899L108.888802,1355.761152L129.323875,1363.201209L144.918376,1383.193070L123.985284,1377.921530L120.558701,1371.491756L125.184049,1374.416810L121.036435,1366.858910L115.440931,1363.932203L108.409472,1357.164073L103.773143,1355.821458L104.638722,1368.779452L121.146342,1387.366023L123.888229,1385.203274L136.193448,1395.710600L134.782949,1408.559595L132.638829,1412.729178L142.708935,1404.022830L142.945691,1392.757156L161.685251,1388.097223L167.421258,1394.371088L165.972695,1399.608784L163.238214,1400.400322L170.425961,1409.534007L182.678128,1402.532316L181.757517,1390.228810L174.182566,1381.212434L170.328764,1379.170989L155.976014,1382.674285L152.099790,1380.937962L158.952964,1370.151125L143.278759,1354.327161L148.448746,1344.657305L167.277418,1353.259991L173.658294,1358.778803L179.947361,1373.472239L201.233917,1387.091610L204.887801,1398.177444Z M459.276225,0.000000L453.314418,9.492187L443.736189,11.093998L440.489789,7.415988L437.479133,7.000396L438.494505,10.649969L444.780082,17.352874L444.454952,21.414493L449.865885,34.305816L490.983376,69.875560L507.159357,89.288627L520.960615,115.909518L521.671758,128.915049L544.592197,160.743419L547.378467,172.496010L535.039633,183.540833L537.493070,192.404718L550.429878,204.830653L550.736780,209.630595L567.141861,223.263933L572.228622,232.098197L572.315739,239.785765L566.539217,250.801616L561.941118,251.596916L545.502131,247.060694L542.682341,242.082306L526.410921,246.205993L485.554053,227.239579L478.773292,232.393021L481.439767,241.228881L486.923128,246.088285L496.257367,250.241757L516.274257,266.150349L510.570334,278.792890L513.203470,290.290826L510.348050,292.236585L498.858096,286.015458L499.197553,293.504132L482.000764,302.972466L482.946522,309.019962L493.261881,322.715386L498.422429,341.000045L508.119325,349.630902L537.296668,362.822612L552.736091,374.484751L559.682330,384.675514L562.560559,408.491171L569.211110,421.501219L584.734759,434.554808L597.972899,436.875879L609.840652,421.649778L604.328184,414.607954L600.864064,406.680779L610.669494,400.864909L608.289244,392.678391L610.892264,391.047720L617.013961,393.390574L619.920467,400.359697L648.704969,403.712808L657.830339,395.020717L594.139417,359.065129L579.032704,360.958794L549.654843,347.236316L545.550492,344.014001L540.588341,335.769599L538.203679,324.752913L540.713196,312.090064L543.367660,311.056252L560.776151,311.322096L568.798489,314.539219L590.195768,328.326056L600.893461,339.699804L606.566141,341.058485L608.144581,333.052280L627.120256,311.587539L642.854830,306.955075L661.527778,309.964536L719.969588,336.213056L784.103432,359.331229L831.499385,380.467507L829.521189,367.943044L813.368444,341.206209L811.800853,325.992555L823.017839,282.212695L837.482711,270.481969L853.119210,266.651311L858.178870,270.982580L868.828353,273.724115L895.185021,273.605125L886.901600,267.181414L888.577144,261.465543L892.526644,262.378754L896.363577,266.474071L904.987521,269.008502L915.888044,261.788827L912.294921,252.774111L923.521722,248.767703L944.056922,249.063401L940.728116,237.811635L947.197558,233.747847L954.026057,226.591725L946.951437,224.736337L936.269465,230.361624L937.198285,241.729205L908.997231,232.805129L908.823537,229.919599L921.764229,235.190859L916.946646,231.685687L859.975330,185.748982L853.303495,171.258684L851.225760,140.529999L847.783860,130.477122L839.260624,123.960663L828.799955,155.351076L822.566137,169.462314L808.617064,168.903694L782.309550,164.455174L775.743025,160.153559L762.481216,147.897111L760.846679,147.809295L760.494399,158.622238L755.616529,157.090869L753.300868,151.197556L756.499386,150.107014L754.426880,148.250396L738.506911,146.158563L735.768799,150.342525L720.752103,149.871501L707.045036,140.883353L715.291122,140.558737L702.523390,136.933930L632.739182,106.586335L576.124842,74.221347L512.116183,31.995638L477.800540,12.933958L459.276225,0.000000Z M426.145884,1396.472545L427.145000,1392.878862L418.048826,1384.502542L414.828761,1364.237406L424.225080,1348.166017L427.437175,1348.928442L421.517468,1328.696322L445.776494,1309.087860L457.562103,1307.804142L476.237425,1312.509749L511.448338,1338.433379L507.752060,1321.703992L512.001182,1294.903389L535.642987,1273.762897L525.070369,1272.262900L527.207690,1265.802452L524.902292,1261.759100L513.777076,1255.663129L510.451552,1247.427777L508.919468,1236.592018L505.068075,1233.923918L488.800475,1231.929199L468.044981,1222.782176L465.827938,1217.286258L456.844422,1218.391665L454.531224,1212.740249L451.341656,1212.033575L449.281334,1217.409835L433.713605,1213.109395L421.714720,1227.202687L415.431965,1228.921921L406.185257,1227.509962L415.535312,1233.064794L419.074601,1239.476612L421.264294,1249.317966L416.318454,1258.848742L404.439415,1256.919602L383.610901,1264.239982L374.407137,1259.462152L368.381819,1251.586763L354.352869,1240.672344L355.125697,1244.934433L346.495217,1255.937911L349.188830,1266.107781L345.431580,1268.649886L350.160124,1281.904019L348.481110,1290.958611L338.104802,1297.532811L307.961048,1326.192751L329.161426,1314.495075L339.033208,1316.022544L342.172625,1331.138411L354.823861,1332.115594L353.674755,1337.669786L358.949783,1338.220062L355.742022,1346.946090L357.598772,1352.985653L364.628147,1361.951019L369.272082,1372.588740L372.141891,1376.672017L391.250847,1375.026558L391.953762,1377.769215L389.408725,1382.826575L391.386187,1392.026069L418.356275,1390.199113L426.145884,1396.472545Z M646.657807,831.799003L656.489491,828.450372L663.422231,817.912364L660.912214,801.220046L657.145956,799.857131L649.580584,802.178741L641.476369,774.926708L636.721795,774.401267L630.676553,790.821122L632.899756,808.031937L637.141740,812.460605L639.201829,808.929325L643.964420,811.406936L645.696333,815.837673L642.421704,830.032020L646.657807,831.799003Z M170.687719,1452.882650L174.776064,1452.822523L185.047376,1436.826694L177.410165,1420.702857L170.731370,1414.646805L161.334916,1419.607152L162.372213,1435.248576L168.349825,1442.940588L165.884268,1447.805418L170.688267,1447.288851L170.687719,1452.882650Z M305.482925,1666.715651L310.931570,1661.368177L308.195022,1650.704941L293.100282,1644.400500L288.001522,1643.080688L282.738495,1652.162548L294.139642,1665.773886L305.482925,1666.715651Z M329.646455,1654.015260L336.663788,1650.127371L334.166788,1616.142107L329.029723,1602.874351L324.261499,1606.515573L324.859100,1644.933186L329.646455,1654.015260Z M41.689722,1409.929449L39.557611,1403.779503L50.950837,1403.169922L35.373247,1386.574149L33.450747,1388.797869L22.146554,1389.680451L25.811257,1397.915254L24.228085,1401.770518L25.605420,1407.188849L41.689722,1409.929449Z M177.038038,2123.231750L184.877448,2118.742484L186.482025,2111.322801L181.140836,2110.314755L182.994071,2097.979260L192.144755,2097.826630L181.525642,2086.377333L182.094776,2083.934873L206.091278,2070.714154L204.062171,2067.233202L213.022519,2062.805749L217.114487,2054.379936L215.767639,2042.656276L210.538057,2037.919374L196.356312,2061.279141L188.880049,2061.402200L188.180484,2056.700199L176.997537,2056.027472L179.389227,2064.210561L186.908207,2066.561502L189.122496,2072.057361L169.761863,2084.790047L175.987037,2098.162920L172.237227,2104.177808L173.971098,2122.773430L177.038038,2123.231750Z " data-iso3="JPN"/></g></svg>