<?xml version="1.0" encoding="utf-8"?><!DOCTYPE svg  PUBLIC '-//W3C//DTD SVG 1.1//EN'  'http://www.w3.org/Graphics/SVG/1.1/DTD/svg11.dtd'><svg enable_background="new 0 0 1000 884" height="884px" pretty_print="False" style="stroke-linejoin: round; stroke:#000; fill: none;" version="1.1" viewBox="0 0 1000 884" width="1000px" xmlns="http://www.w3.org/2000/svg" xmlns:xlink="http://www.w3.org/1999/xlink"><defs><style type="text/css"><![CDATA[path { fill-rule: evenodd; }]]></style></defs><metadata><views><view h="884.332925733" padding="0" w="1000"><proj flip="auto" id="robinson" lon0="114.493414706"/><bbox h="662.01" w="749.45" x="1338.34" y="-478.73"/></view></views></metadata><g class="" id="world"><path d="M486.247869,528.714344L486.825586,529.446903L484.792087,530.372194L486.604806,540.025569L489.766581,536.828378L486.993152,528.471717L486.247869,528.714344Z M483.761753,528.714344L481.203910,527.236810L473.900581,533.612558L468.862780,535.642611L466.526442,535.477141L469.441583,536.772525L477.323867,548.040249L481.468708,538.883251L479.931385,532.550976L484.396192,528.747977L483.761753,528.714344Z " data-iso3="BRN"/><path d="M260.917374,414.349288L261.701064,407.495605L260.058446,404.750957L260.917374,414.349288Z M274.919141,317.291320L273.784864,319.813276L270.758854,316.603605L265.002228,315.386882L262.391031,317.019538L250.694088,317.025804L236.203228,317.733405L231.244050,320.632860L226.165245,333.955674L221.110375,334.744166L221.659389,341.548198L225.077599,347.253478L227.836610,355.864093L232.121665,360.377237L231.368394,363.083903L232.890703,369.875473L236.232860,378.061789L237.148843,379.485392L240.341975,381.856818L241.429376,385.376712L241.999288,394.595524L247.538025,394.682461L249.749750,388.710453L253.067415,398.016203L249.669366,400.679259L252.462229,403.597096L256.165336,402.479681L256.624880,399.077755L259.428600,401.809206L267.488425,404.391828L268.651374,405.124197L271.400284,402.628746L277.123279,402.498223L280.888588,398.332663L280.641122,393.211247L285.686227,395.644799L287.673469,393.223544L293.261311,391.739819L302.478929,397.345750L299.307361,389.834154L294.907634,385.581661L293.291724,378.888235L297.253220,374.866598L305.715322,377.365844L305.536181,372.786605L315.030918,367.982075L318.292528,363.661178L323.717366,364.201347L325.950560,358.694811L324.951283,351.940511L323.060244,347.396281L324.897801,338.990530L324.347917,335.389619L320.442425,329.725589L317.683833,319.341480L319.842379,312.723420L319.634040,309.415151L319.343281,309.668819L311.925468,316.206237L306.871306,318.186659L300.291937,311.783823L290.897878,317.119013L294.575039,324.047235L293.297804,326.958940L290.289286,326.803836L278.564704,322.725020L275.091447,318.813796L274.919141,317.291320Z " data-iso3="KHM"/><path d="M628.923864,882.332926L639.291198,876.658834L640.600245,872.307100L635.882390,875.740080L629.542116,878.533424L628.923864,882.332926Z M613.151984,873.021140L611.380309,870.972438L608.052532,875.113192L613.151984,873.021140Z M580.418387,850.306389L577.689787,849.431039L575.256986,845.544799L573.076658,847.345119L563.344578,847.556209L554.868827,851.845955L568.215246,856.483359L577.778281,866.719932L583.488901,868.607274L588.679502,866.148926L591.300854,863.044907L584.597486,853.248985L581.946763,854.068449L580.418387,850.306389Z M676.222037,849.501502L678.346289,843.347361L677.411595,839.867450L673.473315,837.819001L670.670316,840.044466L653.340405,848.251502L647.953683,853.267613L647.129256,858.879639L648.733545,862.759286L643.224544,866.738709L642.383259,869.662583L648.992442,869.948204L654.558411,866.875264L673.474082,853.900796L674.011506,851.454851L676.222037,849.501502Z M642.800855,825.859018L642.143471,822.177612L638.897822,823.240575L642.800855,825.859018Z M512.233666,829.391394L513.692995,824.859465L512.379000,823.282648L504.926592,822.233497L500.055308,827.007491L499.905282,834.053693L496.364028,835.456690L498.629464,837.213580L503.642477,837.244570L512.233666,829.391394Z M662.531807,823.996576L661.949495,820.991839L658.503414,825.374769L662.531807,823.996576Z M655.557409,822.103121L652.919654,820.904964L645.203094,822.915880L646.378622,824.890562L641.894631,827.857996L644.694320,830.173567L655.557409,822.103121Z M950.013149,825.132602L948.692939,820.796178L945.766086,820.991839L943.514420,825.269223L950.013149,825.132602Z M668.411803,819.886803L664.584777,822.506591L663.155507,826.417738L666.917091,826.752961L677.881153,824.977394L678.355600,820.308987L668.489915,821.314616L668.411803,819.886803Z M738.207833,820.296540L731.068503,819.446032L736.331483,822.705257L738.207833,820.296540Z M543.443079,824.238701L537.508604,818.763137L533.037326,822.326596L538.177709,827.510368L543.819304,830.130172L537.304753,833.581849L533.763748,832.644385L529.974910,826.057663L527.152511,827.584839L523.120028,825.484833L515.404413,828.404268L513.932378,831.781520L512.998373,839.510558L518.925890,841.615114L540.996627,836.245128L546.791245,831.688336L545.419409,834.506865L555.935984,832.296801L557.299010,833.929519L561.264772,829.372766L558.298844,823.859997L552.133720,824.840858L548.036283,822.401109L543.443079,824.238701Z M636.919588,820.097895L634.407865,818.657591L632.442091,821.358139L636.268162,821.587795L632.440761,824.828454L621.820800,831.142107L617.457000,828.118749L605.140582,829.962561L602.821861,827.330309L597.161580,824.375280L592.318942,824.220072L586.534575,822.010001L573.606862,829.857015L573.440259,833.625329L575.908870,835.487723L580.455370,834.053693L582.194600,835.444286L588.688366,834.624816L597.083706,838.076487L608.998317,835.667782L612.123519,836.716928L619.151005,833.221732L623.993422,833.706023L635.782424,824.375280L636.919588,820.097895Z M486.973267,819.359115L483.057104,818.266482L469.346234,821.538134L471.711021,825.573414L480.706124,830.086735L482.919375,835.729847L485.775842,830.626825L491.470715,827.889071L491.365866,822.525241L486.973267,819.359115Z M772.658334,815.429353L771.897803,812.834369L768.448333,812.349254L767.322040,814.789927L769.340479,817.869192L772.658334,815.429353Z M709.678288,807.917512L700.678330,810.630482L696.658725,809.203688L693.123596,813.641418L694.707778,815.522484L698.289473,814.324325L706.015490,816.019129L711.360835,809.544071L709.678288,807.917512Z M941.179048,825.176124L945.730850,820.445523L950.347936,818.614153L954.560755,807.296723L951.832929,806.657264L949.776011,803.056578L942.059005,803.559437L936.622838,806.048891L933.272212,809.388874L927.844349,818.732104L927.245050,825.703811L938.549580,826.268712L941.179048,825.176124Z M809.264187,797.115268L800.570060,805.415676L796.902926,813.746975L797.628749,817.111783L801.597288,817.049675L802.683239,813.809063L806.797653,810.239372L809.287989,804.819686L809.264187,797.115268Z M859.428812,776.004135L859.768569,792.757292L866.059722,786.381532L865.680326,782.522959L859.428812,776.004135Z M308.324989,772.320101L305.972470,769.911334L302.998159,773.977656L301.349025,781.967539L294.403054,790.398190L295.536454,791.677059L304.143277,790.671339L310.680153,794.532808L314.733240,794.247233L311.893149,802.739949L334.210868,806.626220L339.894180,810.723613L358.163675,809.736514L360.016842,808.159670L370.102723,810.587044L370.527504,811.816248L380.107628,813.275140L395.513138,821.252550L408.102028,822.705300L414.529981,825.194753L416.381012,822.723928L427.207908,824.356651L433.453772,826.815070L444.321902,823.052928L454.152627,828.720906L461.385780,831.173140L464.825829,830.446745L466.450270,833.296288L471.585380,832.718941L466.805678,826.690896L468.392922,811.499630L461.849541,808.203118L456.782580,810.785679L449.618425,810.891236L447.062048,812.213549L436.655872,806.582793L438.412792,801.144464L433.937990,793.986478L427.710730,791.981252L424.161514,792.422056L422.605199,789.926395L417.210149,789.454557L413.123964,786.294614L411.261107,787.952169L406.194092,787.797003L403.980971,781.756445L396.976120,783.463672L395.817379,788.498499L392.929210,792.980758L386.875570,791.434975L373.329163,790.187118L366.274416,791.298374L364.475702,789.913969L355.685704,788.604035L355.085551,783.507163L350.831890,778.031584L346.603542,779.825741L341.346481,776.355379L337.749398,777.739785L330.773292,771.097052L325.966641,770.246528L320.398341,774.406024L319.390526,772.487692L315.044832,773.127133L311.204899,770.886011L308.324989,772.320101Z M590.765108,781.638494L592.394954,772.289035L591.030624,766.987260L589.579548,776.417466L590.765108,781.638494Z M872.388175,764.106698L870.395581,759.792059L868.174294,759.560024L864.355254,765.993986L862.967407,770.519709L867.740722,780.160956L870.390597,776.473320L869.834224,770.991547L872.388175,764.106698Z M837.293389,766.409907L840.307195,763.026474L841.990127,756.601934L840.735175,756.557601L837.293389,766.409907Z M234.678170,760.696954L230.660669,756.011314L229.340780,757.352250L234.678170,760.696954Z M620.130156,751.144103L618.023183,756.209949L620.847695,760.481128L622.436266,759.866519L623.086337,754.304024L620.130156,751.144103Z M634.594711,755.738133L637.369418,748.748043L636.485383,741.311641L628.639605,746.184075L629.758387,751.448306L628.924456,758.463527L634.594711,755.738133Z M646.118926,740.658870L642.966824,736.170377L640.840444,737.834172L636.679999,754.639313L632.551725,761.120611L634.240215,765.205550L638.777324,760.096252L645.622845,755.936800L641.088819,754.105367L642.904693,744.098146L646.203100,745.681237L646.118926,740.658870Z M643.754540,726.981543L643.913720,732.768340L645.693126,732.799384L646.686137,727.267927L643.754540,726.981543Z M748.759697,716.950058L740.120948,720.575592L741.456127,722.394570L748.759697,716.950058Z M510.959775,725.113707L511.547262,715.727043L508.968180,711.462084L506.071868,716.049857L505.213497,720.606636L506.599611,729.012440L510.959775,725.113707Z M719.370746,706.812205L708.420017,707.519936L702.989436,713.026526L715.749420,723.785182L727.416614,713.374192L724.171315,713.374192L719.370746,706.812205Z M774.442334,700.852439L769.919742,700.591691L765.730789,704.198602L757.382310,701.783640L746.144080,701.961205L740.811569,715.640130L742.995675,712.598181L747.684747,710.009387L751.433288,715.453895L759.566880,709.748639L761.762669,712.902378L771.664742,715.578064L772.033537,711.741450L781.274185,715.621513L797.301832,723.418898L798.506502,718.986319L794.277293,713.541809L793.354952,708.159367L782.407758,705.055312L774.442334,700.852439Z M199.159528,712.089090L199.128467,706.601140L195.123917,700.467522L193.951256,704.931143L199.159528,712.089090Z M347.998842,695.681094L341.175778,695.848711L339.985899,709.922469L345.307928,706.359031L347.369835,710.686074L351.807929,708.146963L353.114665,699.455616L347.998842,695.681094Z M194.117514,699.714377L193.916904,697.667685L189.555353,694.576058L190.219803,701.231127L194.117514,699.714377Z M184.224104,684.214752L181.938812,687.722295L187.561390,691.169914L184.224104,684.214752Z M705.122293,692.111441L702.989592,686.300643L700.916389,684.630669L702.765453,691.763776L705.122293,692.111441Z M696.438675,678.466041L691.481799,677.863843L692.526176,681.725282L709.470651,679.732477L710.694549,678.658488L696.438675,678.466041Z M789.757449,681.402471L785.107831,676.702940L777.155252,680.098757L784.994704,684.233370L789.757449,681.402471Z M684.260138,676.473236L676.436420,674.604603L670.794474,680.191885L672.416994,683.134526L681.147026,680.409163L690.431869,680.098757L684.260138,676.473236Z M911.786211,679.813179L917.097197,677.112665L889.826377,674.039662L891.132932,675.691017L905.161428,679.701455L911.786211,679.813179Z M310.832627,677.547246L309.764428,673.319528L307.097528,671.404721L303.210463,672.295201L305.230298,678.236337L298.325156,673.133293L291.939556,681.799771L291.956793,684.537560L295.292935,685.810212L300.381953,684.388561L304.917275,686.573817L307.727129,700.299926L316.938169,704.564880L318.595983,707.501319L322.484411,707.215740L320.298630,703.019058L321.892735,698.232629L315.309463,692.893637L313.556561,689.770993L310.832627,677.547246Z M737.767392,668.117145L732.092994,669.737456L731.155308,674.219708L734.592432,676.976092L737.708862,675.784145L745.118358,676.367703L745.777917,673.015335L737.767392,668.117145Z M648.701351,667.055561L648.486185,663.672151L642.872606,664.578540L640.960850,670.625207L648.114932,667.272839L649.806668,671.270852L655.792381,667.348021L652.234412,665.435250L649.358710,669.321515L648.701351,667.055561Z M383.922488,663.504531L383.511509,661.134767L378.455025,667.024539L383.922488,663.504531Z M174.256444,669.445665L168.433857,658.786391L164.336332,659.891431L168.600398,675.616528L173.174182,678.403953L175.949099,677.528607L174.256444,669.445665Z M802.785385,667.682589L804.283534,661.971138L803.597805,658.407695L796.271255,659.537571L798.272055,666.111936L802.785385,667.682589Z M891.058763,652.864353L890.381227,655.266405L894.899570,658.084876L899.602976,664.746160L906.840571,664.808244L909.161445,662.908571L906.029916,661.697986L899.752190,654.484185L891.058763,652.864353Z M837.833878,646.767534L831.131356,645.805282L825.772241,647.841532L820.021614,653.658511L807.712310,657.091583L807.846280,662.356057L802.263806,670.625207L812.768394,670.929424L821.452476,672.723544L820.937017,680.253972L827.797880,688.734242L833.678270,687.095312L835.529844,689.653038L838.157801,688.287254L853.551524,688.107211L858.888841,685.214252L857.240071,688.659729L860.554518,690.186932L859.428099,693.446176L851.649693,695.910798L844.081657,692.620511L835.423595,700.957974L825.471046,697.959456L821.483513,699.797048L823.147578,704.397263L825.264433,703.360511L830.356638,705.974108L832.923820,710.499839L837.237512,711.983554L839.081137,717.688812L835.986425,723.952800L838.177888,729.620824L844.941952,729.012419L849.152061,724.213527L848.460982,721.109467L851.903304,718.079921L853.784104,713.330722L853.952597,708.159367L857.422107,703.391549L854.968722,709.413425L854.183630,720.147221L856.243797,718.663505L859.650376,724.319084L866.025963,727.957020L873.344381,728.869627L883.787118,737.914855L886.685498,737.300248L897.422342,738.690884L899.268946,740.751948L907.006923,743.421483L914.514537,748.263802L919.817724,747.450537L928.980405,753.143117L937.082231,760.766736L941.744576,769.439517L944.653881,781.148038L951.302074,787.983212L952.748320,791.006607L946.494348,791.782616L949.302526,797.134014L952.472420,799.015086L947.253884,798.940583L951.443582,802.771014L954.129462,808.830119L949.032973,820.445481L951.550459,821.780280L956.821745,818.601706L958.729693,821.420205L964.459303,819.644635L970.979145,819.266016L972.671734,822.860507L978.308729,827.857996L986.664504,840.236929L989.771272,842.068285L993.898422,792.119782L991.886119,791.174178L991.267642,785.940728L994.792317,779.596743L997.214952,741.254807L999.433962,696.339142L995.811100,696.382612L993.620446,693.570350L986.909038,691.776202L976.005955,690.981559L963.287908,683.879513L957.231429,681.725282L941.890993,673.903086L939.464690,671.314319L932.110062,673.443699L923.324390,678.354295L925.253390,684.512708L915.671978,688.411407L909.003702,687.616781L899.566484,700.343374L899.106937,703.739193L886.797497,713.908066L880.041332,712.567116L876.738838,707.699979L877.734800,702.975610L875.177767,704.918738L873.780359,694.240803L870.454577,695.681094L871.373001,701.386318L864.529062,689.895141L863.579351,675.399226L867.259547,668.744172L862.692436,659.630688L865.564607,657.488899L861.887394,654.378651L850.399757,654.366232L837.833878,646.767534Z M279.588249,645.839816L276.553814,645.848738L274.943491,648.729290L279.995229,651.864373L279.588249,645.839816Z M735.886015,646.078435L734.571106,644.992700L730.043435,649.660504L733.317093,652.665216L732.565962,654.763550L738.843800,657.917260L740.432396,653.937875L736.879449,653.888211L737.521485,648.406470L735.886015,646.078435Z M728.394547,649.480465L729.851718,644.346379L726.154475,644.700241L726.272967,649.399763L728.394547,649.480465Z M161.456854,648.480254L159.881525,643.675908L158.466737,648.617544L161.456854,648.480254Z M799.603392,638.248243L792.348624,640.044176L797.847691,648.052608L795.544961,639.938639L802.854150,646.233639L807.999606,646.779949L809.200746,642.477746L806.134794,639.982095L799.603392,638.248243Z M284.996310,642.235631L280.024256,640.764313L280.607752,644.166346L288.449929,645.513501L289.913770,644.315341L286.572255,641.099550L284.996310,642.235631Z M242.493101,615.633989L239.590215,613.839846L241.413990,620.805321L248.402894,620.637705L250.715259,619.321591L245.099548,615.373242L242.493101,615.633989Z M250.297230,614.423404L244.494618,612.281622L245.840271,614.926260L252.681295,619.489206L250.297230,614.423404Z M281.166771,610.673738L274.408718,613.976422L278.138051,614.454448L279.539757,618.973934L281.727960,619.613369L283.043007,615.173620L281.166771,610.673738Z M239.661255,616.385165L239.767831,611.099643L235.748619,606.508105L238.115904,617.440540L239.661255,616.385165Z M141.075881,605.204392L136.142082,609.568685L139.521753,615.633989L143.826538,619.799614L145.653194,625.219271L149.284002,623.778995L150.188492,616.198920L145.013392,611.468361L141.075881,605.204392Z M240.288282,609.587302L238.813094,603.919317L230.319564,601.870641L232.971469,605.694843L236.365192,606.309445L240.288282,609.587302Z M684.779964,599.753687L675.202418,610.915843L671.750681,611.989831L670.396102,615.447752L662.291073,619.414709L652.135898,617.409499L641.992368,619.840503L638.204374,616.813523L623.750614,613.504610L618.026659,614.330298L606.982878,608.420186L601.938157,608.463653L600.158277,616.292040L597.006372,620.761865L586.245580,622.649123L586.525469,626.411225L583.789084,628.050156L581.566874,633.531894L583.376455,635.785431L581.600109,640.062800L579.518422,637.517485L582.678363,657.667576L580.443412,652.236857L572.131069,665.863615L571.605249,675.951765L572.930166,679.273090L568.094940,687.312564L568.045163,693.030237L560.710567,698.158116L560.428404,702.087857L562.728070,702.795567L561.456454,713.759066L563.145679,718.036478L570.314519,714.646841L576.724125,726.963730L575.088102,740.112542L572.849039,744.079550L573.334501,747.115322L569.874759,755.309765L570.644087,762.976834L572.386593,762.244262L577.500769,765.540787L580.522421,762.356011L588.864175,761.468253L587.654258,753.217651L588.978416,746.382731L591.796771,741.819775L590.371794,736.648405L590.699509,725.523456L592.750117,720.972915L591.923057,716.521692L592.728949,710.897140L589.773420,708.649798L588.623117,704.248285L600.108100,696.444693L605.079827,697.779434L606.013817,702.410671L605.437622,709.810726L601.543809,717.198380L608.680056,723.567903L610.544464,726.963730L615.099803,728.454422L612.166891,742.266759L616.438610,746.159244L624.745552,745.451526L624.614534,739.212381L640.743110,732.383443L639.562850,728.702025L628.017598,719.383642L628.582115,713.622514L631.107302,709.978343L628.255111,702.485179L624.559187,698.282285L622.845584,692.924707L618.850351,686.760051L612.803689,680.868571L619.047549,680.452633L621.074464,676.349086L628.669308,674.132790L634.556608,668.986278L641.842227,658.314578L647.539187,657.122624L649.851182,661.238599L653.863089,656.582520L653.177667,652.665216L649.614063,650.753125L639.747925,652.615555L644.024345,654.850461L637.717150,654.838046L627.374754,658.848470L614.575332,658.041421L606.356918,669.967160L598.745620,669.247026L595.517924,659.910057L591.028327,658.482196L587.245849,652.094071L585.939071,642.123886L588.723410,633.507062L593.294619,627.423141L600.625793,627.286561L607.874114,628.937912L617.608892,625.889743L621.440610,628.602675L626.315898,627.274146L644.632564,627.298978L646.487272,626.631605L657.569602,632.203365L673.778257,627.932204L677.974311,619.948606L682.632840,616.074758L686.485175,607.290327L684.779964,599.753687Z M222.946971,599.691624L225.587298,594.704012L218.098220,595.314903L219.747757,599.207385L222.946971,599.691624Z M739.062720,613.808803L742.990558,609.525236L744.202223,603.950361L740.283151,595.345947L742.037701,589.026126L734.798509,599.250830L734.178979,605.694843L731.739639,611.083463L735.391952,628.956535L737.174221,642.831608L741.132119,646.643371L744.495134,653.950290L751.498154,657.606850L745.602428,649.368720L741.386055,631.116950L748.031505,629.049658L757.301956,630.334731L757.082538,625.585548L750.651699,623.592754L749.666156,618.067556L757.531648,614.150252L758.280072,607.656604L751.495542,604.024874L747.233462,607.259283L742.071561,618.942893L736.359605,617.421913L739.062720,613.808803Z M749.687517,592.639241L753.621187,591.614895L756.550035,584.084483L753.873045,579.217330L751.334243,580.595535L746.785834,587.294065L749.687517,592.639241Z M113.428700,576.721669L106.965442,572.382196L105.160579,575.057907L118.046536,585.506135L119.731856,582.079248L113.428700,576.721669Z M700.931405,561.207609L696.955674,554.862944L697.434452,560.946882L700.931405,561.207609Z M355.081871,551.311901L353.169021,547.307659L346.453225,548.425145L348.326262,551.964206L351.956924,552.901174L355.081871,551.311901Z M379.469227,593.675973L375.043551,594.563728L369.560104,604.682921L367.151295,611.698064L368.023989,617.421913L365.639932,619.569914L373.130127,643.396542L369.616269,643.309629L372.051036,650.610339L376.049313,651.789878L373.557412,653.459855L373.969141,657.060540L381.900924,660.059050L383.584187,657.488899L384.815659,662.343628L387.163168,663.014104L389.535966,670.811465L386.097769,678.919236L390.386999,683.929174L391.366358,693.800033L390.595762,696.686802L392.720673,705.440234L399.160113,702.503796L405.084454,707.215740L413.446157,703.391549L417.620175,705.589212L421.896496,699.797048L423.325238,705.912048L422.419259,717.117681L431.325286,712.120133L439.246709,714.386093L448.482710,706.067239L453.088197,711.219975L458.831596,710.195622L458.114964,714.845481L466.528870,713.194143L468.345645,709.432043L477.510720,719.762325L479.083802,731.408749L488.005244,726.442233L504.955360,717.930943L510.744212,708.333197L507.800181,705.334677L508.388978,701.156635L510.416376,705.452639L513.147210,701.659492L511.952069,694.743681L516.103540,695.203068L517.956760,688.808728L515.262349,677.925930L510.930706,678.143230L518.340250,670.072692L521.557402,668.619998L521.318510,661.114428L522.775753,666.490642L526.251942,665.447676L533.190102,658.221456L538.687874,655.744430L539.082992,647.487674L536.534098,646.152934L537.094188,638.957761L541.440049,621.295759L547.002163,619.948606L547.523519,617.378455L553.511184,619.979647L559.599802,619.172596L565.993799,616.534158L558.225140,608.084950L548.662150,601.268466L543.157676,596.115764L547.238194,586.071079L540.248840,575.821512L537.810759,569.948642L531.929621,565.913364L533.766687,562.685159L529.137741,559.382440L528.313424,556.526704L541.042359,554.813283L534.519190,546.165395L535.918790,544.834024L533.041319,544.352618L528.729792,540.633974L515.627315,540.031782L513.375644,542.061823L507.682780,540.261481L505.558730,542.465337L502.159132,540.435318L496.264378,550.753168L496.835153,561.673231L495.511525,570.387936L491.226166,570.004490L488.645593,576.107064L490.950542,581.681948L482.594314,587.796922L483.751937,595.656353L480.647821,597.175536L477.868358,606.048698L474.791718,604.347684L465.662390,605.787974L460.160156,610.580607L449.348048,605.912121L448.188776,603.323357L437.161309,602.969479L431.307547,606.203912L430.277156,612.480283L418.621826,616.583824L412.711172,613.777783L399.967670,618.986353L395.224299,615.925767L385.231887,606.446021L381.541338,601.901706L380.970000,591.923289L379.469227,593.675973Z M717.952084,548.108517L719.774704,542.546042L718.423258,537.778221L715.168253,541.360308L717.330017,543.520716L715.585671,548.946594L717.952084,548.108517Z M111.227505,519.942527L106.696751,515.000864L97.372767,511.698105L93.183937,514.466949L95.615350,524.139255L100.541236,533.475989L108.950771,542.359812L114.034812,546.059859L120.376344,554.124169L126.204049,554.540109L128.247073,556.588791L139.274420,572.717458L144.039947,584.314166L146.237356,587.418239L161.180394,594.625812L164.639599,599.232215L172.069855,621.177808L174.628322,632.724843L178.039839,632.811757L183.480883,636.002713L186.349624,639.491657L187.422745,645.004437L191.419082,648.741705L197.307224,656.979835L198.974980,666.614792L199.936820,666.447173L207.676184,681.110680L208.243080,689.895141L212.110506,696.059777L217.191153,701.460831L221.875373,710.605375L233.654129,720.389330L234.367519,726.578833L241.659038,733.060106L246.263953,738.492217L254.198206,745.408089L265.310270,753.006537L264.957836,754.744817L276.873501,768.570376L277.377394,761.120611L288.909002,767.583273L289.649452,762.889916L293.530051,762.231836L300.058999,768.508267L302.587586,764.013599L303.762651,751.280704L304.598432,749.058459L306.306089,713.771492L309.695018,710.437752L309.294239,705.483677L304.321616,701.951262L304.202942,698.263673L299.671869,692.235589L286.180717,689.342629L286.744259,686.331686L280.194339,677.007133L277.610956,665.217972L278.002881,663.492129L264.508188,660.152169L260.263055,656.123120L258.612998,649.648089L260.847425,649.107982L255.631193,643.820038L266.333251,637.945843L264.874644,631.775006L256.767565,626.231189L250.987667,630.229195L241.762545,634.605894L252.017688,627.808041L247.546133,621.711703L241.450344,621.755158L234.480311,615.155964L232.893365,607.290303L224.275751,600.629036L221.203593,601.100849L208.415567,586.729127L206.623375,587.436857L206.759427,592.713733L199.825595,588.293565L195.008823,578.683430L192.609107,581.576397L184.635702,566.856991L181.106576,565.665041L173.814541,558.631239L163.911490,553.255027L162.943463,550.411720L157.132222,546.742735L154.767472,539.044682L149.197539,536.573837L146.982830,528.528103L138.733509,520.644044L133.625257,522.854152L129.864953,520.432982L111.227505,519.942527Z " data-iso3="IDN"/><path d="M156.547193,183.271124L156.951267,185.353288L162.064078,183.385759L164.052406,186.755745L165.757664,194.247004L164.570600,196.338657L166.817419,201.248348L172.662587,202.595337L174.530410,199.572641L182.435567,201.769898L181.270977,204.687146L185.292146,212.266366L181.626652,225.612899L185.414588,234.477998L182.261481,241.021262L186.568293,247.813405L190.473381,242.641839L202.711500,231.069760L206.880809,234.602044L212.967323,236.712937L214.861412,238.854666L222.026045,235.210599L227.087321,226.047559L236.770314,229.511612L238.184401,228.381660L249.982796,243.070260L257.547057,248.849986L258.654031,253.785845L259.527647,268.599230L266.633796,277.595773L275.124632,285.480527L278.576897,286.548459L278.101328,298.233066L281.161661,303.007292L279.815283,307.514481L280.717996,312.257863L279.235012,315.510911L274.919141,317.291320L275.091447,318.813796L278.564704,322.725020L290.289286,326.803836L293.297804,326.958940L294.575039,324.047235L290.897878,317.119013L300.291937,311.783823L306.871306,318.186659L311.925468,316.206237L319.343281,309.668819L319.634040,309.415151L318.725246,307.210295L320.926499,296.767743L311.325196,288.286914L309.608893,283.568176L313.189642,282.394751L305.985515,273.721404L304.008708,273.814638L297.299018,269.772906L293.423655,258.187552L291.716864,258.510521L287.120687,251.550582L282.011467,249.117103L272.109566,238.643698L272.042372,236.936436L262.240868,228.654727L256.390289,219.256183L250.512584,217.064760L240.796731,210.460079L233.552806,206.863630L237.580772,202.309776L235.523492,199.765072L242.555592,197.927597L244.983543,199.907849L250.419266,195.736703L249.015506,193.887004L250.964467,186.929577L245.915525,186.184899L245.987884,183.354693L237.334480,172.431732L232.210764,169.241988L226.753579,172.177241L225.148883,176.366392L219.942365,172.580754L214.398387,172.065549L209.748918,166.976502L207.685132,161.968290L208.061675,153.478226L201.988563,153.931311L200.688381,149.450240L192.215279,141.524519L189.120483,137.544497L188.299672,136.614913L181.565558,135.199574L178.523117,140.152798L180.261457,145.745074L184.280995,150.300641L185.204887,161.726114L186.647488,165.543012L182.853677,163.482667L176.788836,164.705221L174.076603,156.252248L172.930065,155.978576L167.718334,161.974555L165.695396,161.713841L163.451646,171.705631L160.447440,172.574489L157.352606,176.478340L156.600577,183.069168L156.547193,183.271124Z " data-iso3="LAO"/><path d="M522.500126,478.701833L526.182118,474.232005L524.852472,473.642206L522.500126,478.701833Z M181.952635,498.394052L185.376046,496.320523L183.894462,493.593507L181.952635,498.394052Z M190.470968,497.754590L194.148310,504.024852L194.362838,511.536705L196.952885,528.074905L201.626695,533.606345L199.993646,541.453418L214.515332,564.162688L215.412561,574.561263L219.851712,578.143343L225.240931,580.328574L228.434300,584.078270L257.281309,603.714465L260.178134,609.699048L265.785113,605.160946L271.799117,607.457944L275.275585,604.260767L268.389805,586.108309L264.520463,578.913134L262.022455,578.577900L257.820638,572.611901L257.267321,562.238176L255.576932,555.539606L257.062789,549.766070L256.058649,546.761374L257.814592,541.974916L255.881075,529.862876L248.121566,516.130738L239.940579,509.754974L232.657729,499.728797L228.298985,498.684391L225.737825,507.048228L223.508114,509.786039L218.313542,505.825222L212.754866,508.333332L210.131779,512.188593L207.071707,508.296097L209.371377,504.173858L208.998733,498.400265L203.764276,496.686814L201.487109,492.707400L199.705326,493.942854L194.001444,491.726532L192.403984,488.280992L189.369350,494.625402L190.470968,497.754590Z M484.760833,530.216442L484.503200,528.758528L484.396192,528.747977L479.931385,532.550976L481.468708,538.883251L477.323867,548.040249L469.441583,536.772525L466.526442,535.477141L464.562918,535.276353L464.196525,541.782462L459.969519,549.021107L454.711278,553.913103L447.018178,566.919078L443.707947,568.756693L420.360398,574.399859L415.993184,577.901213L417.204649,585.475092L414.631474,585.766862L409.779648,598.990107L411.300229,601.162933L407.858287,602.845332L410.538889,607.271685L403.627329,603.000523L402.392249,603.428890L391.516357,600.033052L386.763700,600.337245L381.081762,594.843090L380.970000,591.923289L381.541338,601.901706L385.231887,606.446021L395.224299,615.925767L399.967670,618.986353L412.711172,613.777783L418.621826,616.583824L430.277156,612.480283L431.307547,606.203912L437.161309,602.969479L448.188776,603.323357L449.348048,605.912121L460.160156,610.580607L465.662390,605.787974L474.791718,604.347684L477.868358,606.048698L480.647821,597.175536L483.751937,595.656353L482.594314,587.796922L490.950542,581.681948L488.645593,576.107064L491.226166,570.004490L495.511525,570.387936L496.835153,561.673231L496.264378,550.753168L502.159132,540.435318L505.558730,542.465337L507.682780,540.261481L513.375644,542.061823L515.627315,540.031782L528.729792,540.633974L533.041319,544.352618L535.918790,544.834024L537.079863,542.695048L536.974083,539.218486L543.467921,543.520716L556.439236,539.044682L553.703571,537.492636L547.069323,530.558157L547.251555,527.205787L550.831209,525.511255L552.920869,527.857631L562.259330,525.312566L567.913518,521.525589L567.908401,518.601591L560.993835,517.595871L551.975101,509.593542L545.695206,508.345737L545.272317,510.748269L541.579436,511.083506L542.153173,502.646658L531.575722,506.942692L535.460161,504.595992L536.353299,495.383134L534.426764,492.490126L527.320461,489.907545L526.039428,483.215145L521.657830,483.028904L522.248623,485.189371L518.794967,490.633882L517.762322,482.482574L515.405634,482.333600L514.350157,488.293418L508.016019,498.735502L500.255541,513.430206L495.033157,512.275479L490.727262,519.346535L495.657179,521.451107L494.930539,524.778684L488.460176,527.261640L486.993152,528.471717L489.766581,536.828378L486.604806,540.025569L484.792087,530.372194L484.760833,530.216442Z " data-iso3="MYS"/><path d="M150.516468,380.503593L146.763463,374.754852L147.959784,378.567980L150.516468,380.503593Z M37.519004,220.851387L38.156721,216.264060L33.044604,216.332217L37.519004,220.851387Z M144.827850,362.655480L147.249917,358.694811L145.515462,355.423157L144.827850,362.655480Z M37.984268,207.418486L40.596601,203.843114L35.047098,200.910026L37.984268,207.418486Z M59.852914,284.089854L63.011805,279.700350L58.916301,280.880021L59.852914,284.089854Z M156.692036,406.824256L158.187243,397.420176L172.027647,373.879683L169.677183,366.814802L165.904520,359.713023L166.137512,357.105587L160.963597,351.251504L158.585000,343.590683L160.235504,342.901436L158.520149,331.596481L152.822171,322.886391L144.975555,316.634682L137.889155,307.135864L135.566979,298.003287L139.616003,297.009800L142.707221,293.502073L140.516872,279.439702L144.257818,277.713563L146.518506,271.995480L144.997424,269.816262L140.041831,268.878634L136.718226,259.435646L133.188360,257.101115L127.529970,249.576609L118.191935,239.593545L118.731511,236.272206L109.092426,223.607770L117.347524,223.030531L115.926928,216.561962L114.337551,215.028726L115.051846,204.575606L118.031339,199.479474L137.605949,194.973185L137.539647,189.151441L142.493283,189.586007L144.088231,182.392605L148.416314,184.105666L153.615045,180.903245L156.547193,183.271124L156.600577,183.069168L157.352606,176.478340L160.447440,172.574489L163.451646,171.705631L165.695396,161.713841L167.718334,161.974555L172.930065,155.978576L171.667860,151.535517L167.478350,153.426406L164.789056,157.338539L158.295081,156.748923L149.917718,152.882550L148.387897,145.262648L143.121267,145.453232L138.378419,143.355390L132.437501,142.697584L135.504062,134.994866L133.573937,129.749548L135.811410,122.101644L129.604386,121.754145L123.350972,119.841931L122.230513,113.236106L117.228325,105.890335L114.493568,99.947356L107.079977,98.879333L103.792104,99.866418L97.153443,105.008645L97.872006,98.034408L92.573972,91.823499L91.788393,85.077152L94.609400,81.144467L93.669680,77.484655L95.255722,73.327310L99.341599,72.295736L99.956260,65.359983L104.040168,64.639055L105.941412,60.344163L105.327461,54.203383L106.567386,51.126770L106.930382,42.574719L100.883350,21.554955L95.072340,19.232006L94.328589,22.766071L87.943866,12.910279L87.657191,9.532903L79.582751,4.418268L76.833861,0.576939L73.834319,0.155246L73.559859,5.684217L71.454924,14.288803L66.437729,21.946314L73.516966,32.513894L64.955613,26.623778L54.493149,28.524835L50.370327,33.787599L42.896747,40.946426L37.570919,43.084164L38.215845,58.561508L39.333721,62.525747L33.020785,70.164081L36.503368,78.652596L29.798205,104.828451L19.253835,101.313640L14.763578,103.450025L16.746124,113.416060L17.101965,122.405832L12.958870,123.721935L14.502696,134.609871L16.448377,142.110605L14.350340,141.692094L12.151214,147.427073L9.982762,144.236850L6.266196,146.788719L8.834176,159.994826L5.653934,160.689907L3.543515,158.139096L0.566038,161.080893L5.889855,175.416858L8.485500,177.191963L17.662875,188.450052L19.402412,186.029606L25.019633,190.132104L27.219122,189.132860L31.745457,193.781566L34.286953,192.564898L32.662952,197.337911L35.426916,196.320117L40.668584,206.158406L36.799518,207.902505L32.761325,203.948602L31.515672,205.791901L38.384852,214.302413L41.806357,216.785442L42.800738,204.827925L43.708220,216.487540L48.894060,222.670301L58.775328,245.882590L59.314107,251.445073L56.432962,260.354463L56.751479,266.376662L55.174182,268.468949L55.289190,279.855442L56.422161,281.413764L60.639208,274.044165L64.376713,277.881189L62.495497,281.376653L68.492928,285.089386L75.052019,277.856377L73.596168,283.617799L77.988361,279.507870L77.530855,283.245436L79.244306,286.951899L84.327596,281.059946L84.466768,275.683378L86.070907,277.285076L100.241636,268.580685L105.292544,257.436361L103.474381,253.823189L108.614120,253.934709L110.799946,260.105927L115.769800,269.605025L121.269124,268.568194L121.149801,280.103769L124.581187,283.984129L128.561553,305.502945L134.402111,318.900738L136.523513,322.302824L136.908865,330.503812L138.545073,325.270422L140.026101,331.503275L142.745650,334.588829L148.018042,344.962696L150.117727,357.509202L151.888090,362.785983L149.469838,363.381801L153.310833,370.694995L150.207365,372.135140L155.357689,386.158931L152.535020,398.314120L150.481974,398.152757L153.601034,414.889050L156.692036,406.824256Z " data-iso3="MMR"/><path d="M579.491685,525.163571L584.001187,522.891398L586.229930,518.527099L578.813705,523.369427L579.491685,525.163571Z M636.834715,435.884600L639.750188,434.717505L637.741925,424.350043L637.601684,415.944409L642.141540,402.467148L642.423364,395.023943L634.909626,392.652540L631.167778,395.123177L628.897900,402.746523L630.557451,406.272688L630.403158,413.287710L623.295268,415.093915L622.389971,421.041154L629.093198,428.546692L632.585357,429.602057L634.475136,435.214114L636.834715,435.884600Z M641.145212,427.683724L643.709916,424.983270L646.478944,412.704191L652.341272,407.179145L653.078490,404.329699L652.339933,392.000630L650.201657,392.913116L641.838364,413.703620L641.145212,427.683724Z M685.733953,418.769046L687.141477,418.011649L684.884996,404.099941L683.022392,413.107590L685.733953,418.769046Z M651.700603,422.804255L655.708930,423.865799L661.538004,422.903576L665.817909,418.942879L664.683844,414.963519L659.569125,411.059095L656.189243,411.332205L654.230888,415.286333L649.707678,417.980616L651.700603,422.804255Z M624.218813,405.527807L626.925583,402.374180L625.696840,397.842329L623.290012,401.492533L624.218813,405.527807Z M623.346403,459.313894L620.582855,463.814753L617.234618,479.229524L620.409792,483.575234L629.487569,464.957070L633.968331,466.086929L634.809350,471.854267L637.685784,470.960319L640.340518,465.335753L642.916246,469.638005L647.549446,473.182817L644.872757,469.147551L647.463802,467.005760L646.386943,463.467113L648.451178,462.660063L656.180349,466.248361L663.139222,472.493727L662.662826,476.026136L659.434062,479.186075L657.998735,485.685986L659.896280,492.372142L663.579525,499.257002L673.359678,504.844331L679.368749,507.284142L681.788335,506.806112L682.816212,501.696812L684.398725,509.233496L686.399705,512.163741L692.461951,506.886817L693.757732,501.535380L692.449157,496.935154L686.754379,490.571816L686.346846,487.703639L693.930503,473.524276L698.107752,483.718026L699.938146,485.108644L700.561249,491.291951L703.657867,487.182161L701.844077,483.960131L709.477894,475.870939L708.297204,472.499940L702.894524,447.208117L698.742728,447.499902L699.089051,443.744034L701.581471,440.925547L697.994296,434.748538L698.478070,430.210434L694.145517,430.061430L689.835430,424.467992L686.021980,422.822840L682.337277,418.502073L681.653561,422.394523L685.612889,436.877903L680.928616,437.169688L678.725796,435.574187L679.022028,439.441814L670.904939,437.393140L671.156317,447.779305L669.875747,448.617384L665.334446,445.308463L662.394515,447.487498L656.232854,455.440061L654.338273,455.762880L652.883869,448.604937L644.942348,443.253562L642.705815,447.574415L637.312404,448.282118L635.822091,455.893236L630.754301,455.725624L623.346403,459.313894Z M685.392963,391.801947L681.125938,387.835074L682.830235,384.967070L679.091713,379.696372L677.335028,371.483228L678.825709,368.571860L676.686521,363.859841L674.554047,363.884650L668.817285,356.900636L659.957284,358.490095L652.915027,357.012383L657.672128,366.963868L667.271199,375.524776L669.462909,378.560393L667.018328,380.162111L670.103781,385.941685L675.604602,390.436234L676.276627,389.244373L683.851096,389.231862L685.392963,391.801947Z M673.350553,413.939623L677.881384,407.141825L673.605745,398.835508L671.858488,397.792712L671.963076,392.317303L669.579224,383.500331L663.330063,385.662331L656.351467,379.547520L659.427692,392.037949L661.397224,395.290785L663.187656,392.000630L665.150616,393.776220L668.225509,411.177107L673.350553,413.939623Z M651.063676,376.213773L648.199082,367.497791L637.317533,358.384379L632.696331,356.279793L633.155571,364.685631L634.612836,365.238097L633.234814,371.762582L639.343182,365.120106L643.897111,371.502005L647.917704,372.929852L651.063676,376.213773Z M559.744988,391.404582L560.631385,398.686656L557.071264,405.999578L555.026215,406.930865L551.264101,414.020316L550.091350,412.971035L537.395512,431.396133L532.401346,435.338287L525.155408,443.309446L522.349333,451.019874L528.530504,448.083474L529.415727,444.302752L537.465700,439.839123L539.813360,433.562773L546.581845,430.241466L551.264454,421.649571L550.664685,416.211339L559.263285,413.430531L560.794075,408.252997L565.785196,406.359625L565.567246,399.710910L562.813881,389.331310L563.782332,386.456828L561.756652,382.763274L559.744988,391.404582Z M619.587842,494.830612L623.922255,493.570360L621.235115,487.126287L615.953558,490.695970L619.587842,494.830612Z M606.735727,506.899243L604.007229,502.261739L599.559129,503.441286L606.735727,506.899243Z M609.972081,367.764635L610.356159,354.566521L608.284702,356.490989L607.613575,363.437685L609.972081,367.764635Z M576.591154,370.303894L567.604615,362.413444L567.884205,365.262906L576.591154,370.303894Z M607.329915,343.031941L609.065392,338.940698L606.488506,335.656684L603.244331,335.383587L602.800045,339.611170L607.329915,343.031941Z M621.748249,363.959311L621.417816,358.918305L617.314618,360.631785L621.748249,363.959311Z M601.554924,311.109061L602.306675,303.503913L597.766476,303.236835L601.554924,311.109061Z M659.335907,381.614784L662.393037,380.491082L660.297626,377.027047L656.517732,377.002239L659.335907,381.614784Z M649.068916,336.004230L652.656820,332.658073L650.599883,326.661030L645.959587,324.078290L646.408155,331.341905L645.072691,332.676851L649.068916,336.004230Z M572.984451,337.233429L575.986248,338.233118L577.802174,342.529105L582.866817,347.079601L584.527262,353.734693L590.912184,362.425955L594.558303,365.207044L599.645732,356.472446L597.773091,352.939971L595.579773,342.361471L590.828236,338.413029L574.772925,335.786998L572.984451,337.233429Z M612.897435,405.316613L617.169587,400.362820L624.333107,399.127372L627.379654,394.148542L631.100544,391.323911L633.672896,384.544896L633.354339,378.790129L629.236529,382.117630L627.099764,378.616255L620.555007,379.553552L617.897853,375.692384L609.147447,371.241193L607.516066,375.301284L612.520303,376.573819L612.699873,389.542269L611.190376,397.606327L611.633047,404.652404L612.897435,405.316613Z M558.335760,276.211110L553.566983,273.454319L554.200104,280.314965L557.736366,284.089854L558.340430,288.951192L564.575869,307.619968L567.194440,305.664534L571.290716,314.064435L575.746250,313.952682L573.546649,306.688868L579.384247,308.191251L583.010329,312.897306L577.230459,318.888227L578.361943,329.746370L583.585274,328.051614L586.705572,333.428002L594.436196,332.732715L595.150798,328.510893L599.884979,326.027634L607.068120,330.081621L609.662416,334.067424L612.175825,334.532965L620.389499,342.336662L618.762731,337.543867L615.301098,333.080263L619.738114,329.758903L621.141521,333.080263L628.259925,337.078327L634.388475,346.707036L640.022237,350.438216L643.146669,350.525155L644.553337,354.386399L649.372167,357.720185L650.198064,347.054792L648.040897,347.340417L641.235044,343.298790L642.225647,341.908232L635.655124,334.657226L640.973200,332.111857L638.253929,326.909320L628.511432,325.208291L630.949804,329.336712L625.612660,330.100399L624.515278,322.904935L618.966839,318.304656L611.116707,318.962657L609.277977,322.327634L609.336926,327.449508L602.945709,325.127616L598.398849,318.621369L594.891297,311.307992L597.082694,309.792871L593.683518,305.714155L588.294567,294.377328L589.624822,293.582752L591.701312,286.064126L589.823616,282.531534L600.521236,273.920108L603.882592,259.597003L601.486964,251.892091L598.170769,250.141410L595.405181,244.845762L593.675747,233.081175L595.883567,229.741116L591.552462,224.371413L588.438431,229.759872L572.017078,221.975035L561.613431,223.557940L559.984966,245.696172L562.115214,247.546331L564.168323,258.820743L562.482448,261.937554L563.228295,269.201607L566.600017,276.614785L561.802073,279.663005L558.335760,276.211110Z " data-iso3="PHL"/><path d="M151.989747,464.721146L153.657810,463.473304L153.930620,457.209365L150.876026,455.098614L151.989747,464.721146Z M155.721545,411.928255L152.404098,422.965641L150.761639,434.071829L151.316063,436.455721L148.898538,443.005257L150.711641,454.260533L157.663487,451.150272L161.904003,459.220752L163.464062,458.134386L170.788041,466.943673L172.727121,473.300778L177.923764,473.319396L176.724943,476.218611L181.086616,478.708068L180.095628,484.295389L188.575133,491.974840L189.369350,494.625402L192.403984,488.280992L194.001444,491.726532L199.705326,493.942854L201.487109,492.707400L203.764276,496.686814L208.998733,498.400265L209.371377,504.173858L207.071707,508.296097L210.131779,512.188593L212.754866,508.333332L218.313542,505.825222L223.508114,509.786039L225.737825,507.048228L228.298985,498.684391L222.110966,493.458590L216.106625,484.655446L206.747998,485.114836L201.848779,482.550875L197.620409,476.858018L193.663410,477.019450L188.191653,465.459907L191.754967,467.154734L190.739839,469.532448L194.197843,475.659856L197.369944,476.777313L194.444374,471.810819L189.057103,450.175592L186.540699,450.113527L183.425021,445.736827L181.813070,434.928553L179.316662,429.968268L168.598283,431.880358L169.585726,428.143097L165.550048,419.594690L164.647369,406.396944L170.758460,395.328105L170.056860,389.635472L178.292034,365.759488L176.161171,354.088478L178.158228,346.558203L175.717111,339.378081L180.296697,336.556923L186.387044,335.867671L194.669667,339.282190L193.418784,340.703828L194.453151,347.098144L193.288229,349.221311L213.357433,355.311410L218.529050,357.906338L223.977415,362.339018L222.689549,365.424270L227.869608,367.665400L228.908915,364.933933L235.759372,375.549585L236.232860,378.061789L232.890703,369.875473L231.368394,363.083903L232.121665,360.377237L227.836610,355.864093L225.077599,347.253478L221.659389,341.548198L221.110375,334.744166L226.165245,333.955674L231.244050,320.632860L236.203228,317.733405L250.694088,317.025804L262.391031,317.019538L265.002228,315.386882L270.758854,316.603605L273.784864,319.813276L274.919141,317.291320L279.235012,315.510911L280.717996,312.257863L279.815283,307.514481L281.161661,303.007292L278.101328,298.233066L278.576897,286.548459L275.124632,285.480527L266.633796,277.595773L259.527647,268.599230L258.654031,253.785845L257.547057,248.849986L249.982796,243.070260L238.184401,228.381660L236.770314,229.511612L227.087321,226.047559L222.026045,235.210599L214.861412,238.854666L212.967323,236.712937L206.880809,234.602044L202.711500,231.069760L190.473381,242.641839L186.568293,247.813405L182.261481,241.021262L185.414588,234.477998L181.626652,225.612899L185.292146,212.266366L181.270977,204.687146L182.435567,201.769898L174.530410,199.572641L172.662587,202.595337L166.817419,201.248348L164.570600,196.338657L165.757664,194.247004L164.052406,186.755745L162.064078,183.385759L156.951267,185.353288L156.547193,183.271124L153.615045,180.903245L148.416314,184.105666L144.088231,182.392605L142.493283,189.586007L137.539647,189.151441L137.605949,194.973185L118.031339,199.479474L115.051846,204.575606L114.337551,215.028726L115.926928,216.561962L117.347524,223.030531L109.092426,223.607770L118.731511,236.272206L118.191935,239.593545L127.529970,249.576609L133.188360,257.101115L136.718226,259.435646L140.041831,268.878634L144.997424,269.816262L146.518506,271.995480L144.257818,277.713563L140.516872,279.439702L142.707221,293.502073L139.616003,297.009800L135.566979,298.003287L137.889155,307.135864L144.975555,316.634682L152.822171,322.886391L158.520149,331.596481L160.235504,342.901436L158.585000,343.590683L160.963597,351.251504L166.137512,357.105587L165.904520,359.713023L169.677183,366.814802L172.027647,373.879683L158.187243,397.420176L156.692036,406.824256L155.721545,411.928255Z " data-iso3="THA"/><path d="M685.186266,844.334226L694.673151,841.174347L697.904111,838.982874L704.033014,838.194437L707.961884,834.326850L715.421666,832.110561L721.553348,826.541912L715.300876,823.891030L706.873746,827.721417L702.961320,826.405334L677.399860,834.699350L673.473315,837.819001L677.411595,839.867450L678.346289,843.347361L676.222037,849.501502L685.186266,844.334226Z " data-iso3="TLS"/><path d="M319.634040,309.415151L319.842379,312.723420L317.683833,319.341480L320.442425,329.725589L324.347917,335.389619L324.897801,338.990530L323.060244,347.396281L324.951283,351.940511L325.950560,358.694811L323.717366,364.201347L318.292528,363.661178L315.030918,367.982075L305.536181,372.786605L305.715322,377.365844L297.253220,374.866598L293.291724,378.888235L294.907634,385.581661L299.307361,389.834154L302.478929,397.345750L293.261311,391.739819L287.673469,393.223544L285.686227,395.644799L280.641122,393.211247L280.888588,398.332663L277.123279,402.498223L271.400284,402.628746L268.651374,405.124197L268.807557,406.291465L272.253115,411.288853L275.759425,409.774047L279.596084,412.145481L277.765634,424.399704L278.187523,441.484266L280.798372,440.913100L278.872832,444.700041L281.391442,446.432125L284.883747,445.277430L288.679960,441.260770L290.903723,435.568006L304.438953,428.956425L299.463918,416.409981L308.262488,424.883948L311.695113,420.650051L303.320042,411.760625L311.638487,418.545552L313.707832,410.196223L307.835598,407.756417L314.799566,406.080271L313.554657,404.075133L317.228573,401.151050L318.972644,402.374180L328.720126,403.373626L331.901151,400.716578L337.856632,398.941222L339.014369,394.856335L344.113888,393.354067L351.026942,388.486983L352.488361,385.196593L356.699191,384.221957L356.067661,378.454892L358.400182,379.547520L360.486860,370.701240L358.038901,361.202795L360.783496,361.140900L357.294039,355.795719L361.307170,348.749532L358.721108,345.786260L355.980378,337.717746L354.152512,322.284281L349.674897,309.308769L346.695667,304.584118L345.449656,297.351315L335.272126,287.566555L327.946667,275.925480L322.350656,273.870485L306.529755,260.298575L304.169098,256.567127L287.374439,242.424347L289.752691,242.200886L285.616279,233.242520L279.894204,229.269321L268.842449,215.289500L271.073097,206.766665L271.647121,192.844218L275.610027,191.453975L280.374249,186.445413L285.474474,176.006471L281.620532,168.683191L292.113425,170.265660L294.854621,168.559184L294.226584,163.650226L302.082564,157.034271L307.189977,157.971493L300.806821,153.827457L292.924323,155.216026L291.263312,152.398396L285.304747,150.077206L285.110439,147.762210L276.520377,139.047858L274.605909,138.253475L274.569075,132.828468L276.110470,133.592034L277.963664,128.508180L273.410871,126.230075L268.406676,127.322675L264.228164,124.417211L259.227515,126.049941L252.801826,122.604517L246.820182,115.645171L245.677719,118.221551L238.253628,121.816040L239.615584,125.460178L230.937169,131.046989L228.330792,127.800451L225.528659,128.688095L223.964901,135.244922L216.882357,128.871761L211.641570,128.917794L204.023798,135.621902L198.526177,130.953816L193.556096,132.251240L189.759883,136.819618L189.120483,137.544497L192.215279,141.524519L200.688381,149.450240L201.988563,153.931311L208.061675,153.478226L207.685132,161.968290L209.748918,166.976502L214.398387,172.065549L219.942365,172.580754L225.148883,176.366392L226.753579,172.177241L232.210764,169.241988L237.334480,172.431732L245.987884,183.354693L245.915525,186.184899L250.964467,186.929577L249.015506,193.887004L250.419266,195.736703L244.983543,199.907849L242.555592,197.927597L235.523492,199.765072L237.580772,202.309776L233.552806,206.863630L240.796731,210.460079L250.512584,217.064760L256.390289,219.256183L262.240868,228.654727L272.042372,236.936436L272.109566,238.643698L282.011467,249.117103L287.120687,251.550582L291.716864,258.510521L293.423655,258.187552L297.299018,269.772906L304.008708,273.814638L305.985515,273.721404L313.189642,282.394751L309.608893,283.568176L311.325196,288.286914L320.926499,296.767743L318.725246,307.210295L319.634040,309.415151Z " data-iso3="VNM"/></g></svg>