<?xml version="1.0" encoding="utf-8"?><!DOCTYPE svg  PUBLIC '-//W3C//DTD SVG 1.1//EN'  'http://www.w3.org/Graphics/SVG/1.1/DTD/svg11.dtd'><svg enable_background="new 0 0 1000 818" height="818px" pretty_print="False" style="stroke-linejoin: round; stroke:#000; fill: none;" version="1.1" viewBox="0 0 1000 818" width="1000px" xmlns="http://www.w3.org/2000/svg" xmlns:xlink="http://www.w3.org/1999/xlink"><defs><style type="text/css"><![CDATA[path { fill-rule: evenodd; }]]></style></defs><metadata><views><view h="818.237958208" padding="0" w="1000"><proj flip="auto" id="robinson" lon0="105.116895752"/><bbox h="797.97" w="976.42" x="984.92" y="-892.41"/></view></views></metadata><g class="" id="world"><path d="M561.933974,741.148330L562.535440,735.888271L561.274765,733.781810L561.933974,741.148330Z M572.680039,666.658360L571.809505,668.593909L569.487105,666.130553L542.966382,666.997651L537.158517,673.830376L533.899731,680.119617L531.382931,680.053056L531.804288,685.275009L534.427693,689.653693L536.545177,696.262160L539.833867,699.725904L539.255748,701.803214L542.989124,713.298429L543.692122,714.391015L546.977341,718.912480L547.414737,725.987727L555.909294,728.613027L555.444826,732.896246L560.791371,731.524077L566.977119,733.506186L567.869658,734.068264L574.371669,732.052884L577.261465,728.855903L577.071540,724.925323L580.943553,726.793024L586.757272,723.796033L593.831602,728.098468L591.397490,722.333475L588.936597,713.075967L589.820979,710.846187L595.624886,710.998672L596.177980,709.249836L603.464993,705.562459L608.167279,701.360166L610.131660,702.660829L611.845590,698.434677L610.615595,680.548428L605.501050,668.231815L607.157689,663.152592L606.997793,660.613564L606.774641,660.808249L597.202660,667.345514L592.153131,662.431471L584.943386,666.526118L586.785280,674.078057L575.477932,670.828611L572.812280,667.826829L572.680039,666.658360Z " data-iso3="KHM"/><path d="M756.769028,373.430815L756.458268,371.846137L745.523309,367.505717L756.769028,373.430815Z M628.746624,601.195035L630.893522,597.192748L640.039543,592.690384L641.210416,584.257887L643.469696,576.711836L645.698898,574.201354L635.620744,568.509132L623.347980,572.305331L619.780775,571.214493L620.628598,574.768113L613.307446,580.370398L612.062788,585.282109L614.318296,594.429406L617.831145,596.768730L628.746624,601.195035Z M102.661888,304.142208L107.210985,301.381724L121.828188,295.327721L128.406035,301.178198L134.092523,304.895861L136.080452,302.780919L139.350707,305.108705L138.356887,306.849499L139.198351,314.344507L138.046154,318.416960L135.771847,318.349594L133.997287,322.693191L131.925195,322.328401L131.895429,329.505547L126.364924,329.529481L127.727795,339.971469L135.534718,344.211595L135.546369,347.270262L139.181612,352.519737L131.933093,357.840020L129.395571,355.910462L123.582558,354.797807L132.074784,369.483144L133.776699,370.664608L133.854483,375.788502L136.247726,375.034358L141.023530,377.012450L147.277545,382.182924L152.005866,382.605049L157.759934,387.638313L170.968385,394.766575L172.844165,397.842946L178.691406,391.092773L186.037190,392.416674L187.995120,396.902721L194.217658,399.243934L199.582779,403.928575L207.376960,406.875622L212.340168,412.539559L218.061640,410.598929L220.531488,411.716710L222.380133,416.588729L232.388891,423.058148L237.320576,427.096899L245.106031,428.216180L246.042748,426.682441L252.171285,434.534330L259.544624,430.707870L266.749396,433.118999L269.628978,435.558969L278.982246,433.986187L283.371183,434.786205L289.356216,430.584010L292.860894,432.242208L296.652206,444.174240L296.901130,441.555504L303.511392,430.121784L308.829296,426.977715L314.480576,428.101958L315.383612,431.155719L323.018502,431.656061L326.414411,433.018809L328.962283,430.865134L334.886917,434.429517L335.236121,436.553101L339.925930,437.189007L345.007649,435.987908L349.748908,433.285745L350.724743,429.469184L354.841634,421.748721L362.053752,420.572782L365.921347,417.702379L368.220354,412.910701L374.189489,410.575122L375.638108,412.511141L384.094584,414.613878L386.668997,411.193582L392.791510,407.408099L398.212747,412.244669L395.276175,413.957335L402.056403,417.155147L400.098702,425.401246L404.650526,424.510716L416.735169,428.703924L417.344800,427.506560L420.653712,423.586667L428.960391,430.460183L429.180409,433.052249L434.080551,440.616364L439.111193,439.686858L443.752164,455.819089L444.567997,464.543454L442.521956,464.743847L442.993150,469.456767L441.533985,472.753008L438.399671,473.306305L432.131003,488.438821L432.733918,493.616502L436.800049,498.383246L436.248567,503.735828L443.866975,499.031708L453.645559,498.433715L451.655621,504.412506L455.494696,510.050232L456.354625,515.120066L465.917752,516.854348L464.200538,522.723955L465.681868,526.749628L463.328347,532.661303L475.569944,534.629937L476.744050,540.478052L483.173501,543.445413L488.157492,543.897931L493.436831,539.444233L494.405546,542.854188L497.367073,549.551706L505.648445,548.432496L503.826217,547.265304L498.698098,530.708233L501.033108,526.906736L506.201400,527.992980L506.831355,528.706417L507.322081,528.150086L510.235596,524.643952L514.050030,523.648206L518.269340,527.230864L524.115820,522.085602L528.138015,522.050272L533.573720,526.941540L534.773872,521.909312L538.924791,523.719714L545.585294,519.431953L544.540021,516.635153L550.237856,513.876458L551.114673,511.899139L555.705460,517.240293L560.637043,519.884584L564.474936,518.631498L567.681857,520.861381L571.522473,520.022833L575.016647,521.771231L572.439640,529.250542L586.498641,542.268947L591.496938,541.925991L595.918146,543.338072L598.906008,542.530791L600.622245,540.658788L603.742576,542.163993L602.291569,538.049945L611.749697,544.902947L625.336896,544.874984L622.171169,550.237570L622.697819,554.738674L628.291183,565.760669L631.231593,565.674911L636.711452,561.673690L632.787875,558.553742L633.274507,555.491258L630.218710,555.362660L630.050571,551.552062L636.096910,548.742019L641.052008,543.483483L650.235668,543.669187L650.712346,539.615714L669.383881,536.395849L669.970852,531.884803L676.276822,531.865079L674.679920,516.549405L680.331629,527.559440L687.211493,525.067925L695.081459,526.354156L696.870815,522.209452L700.436403,520.008439L701.527488,523.405352L707.924498,522.652609L717.545595,519.446216L721.955669,507.757972L734.763525,500.718940L737.368405,496.795964L733.182071,494.417263L734.871099,490.622453L744.081783,491.323410L744.931758,488.486523L742.847419,484.934074L747.202815,486.059499L744.675844,479.840671L752.166737,475.424073L753.918254,467.066838L748.547650,454.707780L751.439341,452.437364L757.279891,454.640837L756.227849,444.215950L759.176202,446.776596L759.687894,432.056268L762.631437,432.823567L763.687802,427.587513L767.729905,430.064665L767.486512,416.660163L769.018935,416.845710L766.559125,410.213673L771.434373,411.678529L768.472941,404.508419L770.035156,400.516891L763.234673,398.897159L754.066310,393.085967L748.314754,396.299829L740.759169,393.712540L749.792884,391.927856L756.449782,383.852522L760.578109,383.705686L756.209646,376.647152L747.027946,370.640856L733.375345,364.598844L730.714254,365.766823L722.838357,362.058629L724.502880,360.557692L730.542411,365.225588L733.130367,362.528787L742.056709,366.981818L746.238819,366.298477L756.161608,369.245861L753.880733,365.572192L746.000942,361.270270L744.993192,357.892228L735.008239,353.204878L733.485935,346.827219L728.149727,341.546635L715.684428,324.607831L696.242298,315.081539L695.527174,311.606194L701.385605,301.696366L700.527674,293.120241L703.745919,294.022783L708.969356,292.518603L707.429607,287.159019L709.878481,288.130272L710.072031,284.910584L723.165623,277.460513L728.215411,280.034365L726.401616,271.620467L727.513400,270.489962L720.413538,270.295948L718.512405,267.870804L712.227358,269.466406L703.683744,265.553531L695.363860,263.882011L690.304088,270.058237L687.960135,271.324393L688.302931,274.960028L683.029511,275.426005L676.140398,272.872625L673.687686,267.259871L674.458192,265.001042L669.556961,259.186586L657.737531,257.697420L645.809912,249.580645L644.227313,241.114722L645.803200,239.424018L650.259935,239.893201L653.128231,242.097562L656.017275,239.529334L661.369288,240.175730L663.379689,235.909960L664.217817,227.079131L670.645816,223.515640L674.043732,219.638749L675.214568,211.870986L679.685210,209.860165L687.951929,212.062698L696.364099,216.854703L691.290931,229.798561L693.481559,232.100439L690.071991,233.925079L699.795524,236.220480L695.147486,247.318430L701.763970,244.492219L706.204301,240.372138L705.201734,239.433550L713.646690,231.143959L726.117134,228.877126L732.852004,217.554987L738.698261,215.103721L740.575663,211.085010L744.539648,208.757948L746.476430,200.385418L745.545181,198.324379L748.795420,195.384952L756.888404,200.817558L768.155893,202.183833L769.702403,198.779038L762.415741,191.936435L774.186328,191.584937L775.939796,184.564713L779.385236,185.930451L777.655782,175.952498L783.946543,177.306068L788.769552,180.691842L795.554449,176.864306L786.085259,157.961597L776.548749,147.335992L772.999701,144.783258L797.297337,137.226166L796.253989,133.820002L798.726011,131.770045L796.614865,128.436993L795.959117,123.139288L797.559457,121.148611L794.364353,117.462871L794.606064,114.366277L789.677539,104.301194L792.547653,96.445846L786.668646,92.087547L785.644780,88.191842L780.194203,85.462363L764.208912,91.849832L762.863131,96.842066L750.482725,97.676709L744.213225,97.434004L738.740413,93.597705L733.495427,86.929284L725.845626,81.704256L712.344454,73.866505L692.520890,67.416859L691.398985,65.598540L678.800527,65.357539L671.781073,61.285121L668.459032,55.021637L661.561296,50.888469L661.114558,48.873882L649.647200,40.955621L639.695535,31.141826L632.909806,26.567654L631.338512,23.206021L618.274429,14.245673L616.905051,12.575946L610.271485,10.952860L606.546501,8.422099L591.419134,5.911614L579.714632,1.177748L571.097496,0.000000L568.055722,1.082489L558.592316,1.589993L550.581675,3.892925L543.850844,4.518747L541.704725,10.793809L539.407109,12.844465L543.646179,15.939113L546.294803,14.992128L551.129158,16.649288L556.547077,22.991573L556.725236,27.047766L554.672632,34.760535L555.173338,48.671142L561.170408,56.760746L552.081435,62.234297L548.294655,66.168994L538.326730,64.504605L529.731812,61.398298L531.494278,83.263997L534.536306,87.758429L531.771654,89.715467L534.630000,93.346012L541.255907,97.163834L543.921963,94.031325L552.049099,93.872765L561.219548,97.690602L563.238234,91.793956L573.400783,92.073657L578.469283,95.807320L584.346070,97.615953L589.247985,101.653278L597.684913,106.165727L602.727747,110.304227L604.758043,113.635059L598.121339,115.241955L591.761393,112.964288L582.753791,113.187991L572.363880,115.847292L573.776738,119.431694L563.864993,120.581011L563.769312,130.661124L559.933837,134.580459L550.301665,135.845832L545.452913,138.698703L542.727972,143.254237L538.580294,146.459126L531.137331,145.586442L522.912112,143.448030L519.054509,140.882694L512.894535,140.697726L511.065230,142.214361L512.214512,153.306254L521.926018,159.834839L522.996053,164.247050L515.255146,170.135565L512.397244,179.070197L499.846692,184.841438L495.285506,184.370931L475.993168,185.169129L474.161931,184.241897L458.739387,190.701845L447.361485,198.973871L439.951778,197.596069L438.296278,194.037461L422.868116,193.870634L410.985709,189.306062L401.652122,188.109537L395.858763,183.517700L381.050732,180.724180L373.784653,180.507692L363.477902,182.503292L349.697713,181.539988L329.716485,178.743028L319.368398,179.844184L317.686362,176.928614L308.344691,170.761330L298.242252,158.942010L294.236606,155.876159L281.895480,151.310986L263.483194,142.852137L237.567334,141.081495L229.175925,138.680204L225.713489,138.823678L219.571614,129.955474L221.606610,125.393990L217.972299,120.250670L218.029083,115.931125L204.500628,103.373511L200.004580,97.457500L191.138854,94.874910L186.139173,91.299981L172.453959,88.340988L170.920758,85.909217L161.280214,82.318810L161.806384,80.149718L156.077613,77.214195L154.871337,72.357998L150.407470,73.936456L142.452192,73.476243L144.309640,80.014808L143.303660,83.003182L133.441199,85.247709L135.183070,95.317776L140.139758,102.650856L139.821912,107.801689L130.921208,110.019917L120.503776,109.139165L113.641558,107.750358L107.103042,105.023804L106.467304,122.637067L108.210198,133.963907L111.496803,134.492479L112.304155,140.100999L109.474519,138.342245L99.297531,136.730653L90.404657,140.040703L80.340755,141.812287L81.102536,145.655805L84.164826,145.143343L90.216551,156.953547L99.454665,167.669670L100.145233,173.080432L97.272006,174.967432L100.774162,177.370697L96.968160,178.434604L96.727269,181.479920L101.901548,190.997591L90.015986,195.561061L82.875226,199.800084L78.407305,207.278458L69.890093,208.949235L62.800131,207.875523L59.349500,213.088178L58.386835,218.852858L51.419010,220.510191L45.253944,214.780170L32.320565,222.774159L26.146073,224.848861L27.942345,232.510094L24.541276,235.251449L28.136995,245.145551L33.549862,250.871961L38.203936,248.430057L46.789160,253.466391L46.212576,254.822955L56.117522,270.499756L51.765782,273.775499L45.961415,274.542544L57.240606,277.581817L66.849135,282.103471L73.454566,291.984890L89.146984,302.141974L100.893949,304.484476L102.661888,304.142208Z " data-iso3="CHN"/><path d="M389.419109,703.900247L386.997205,711.923005L389.755622,715.529744L389.419109,703.900247Z M411.589423,797.079405L412.844213,793.539294L410.701519,788.727024L408.725271,789.741898L411.589423,797.079405Z M387.620032,732.329212L386.990724,725.906773L385.068526,727.988856L385.640196,732.110168L387.620032,732.329212Z M101.926962,305.464738L95.398395,308.727239L93.201795,318.027396L86.424234,316.492459L78.061599,321.041207L61.136733,317.767649L50.964604,318.373701L50.944379,324.348801L52.612416,324.516791L53.619847,329.433680L57.766474,329.467279L56.036422,336.014327L58.506055,337.475881L58.294967,344.164078L63.207980,346.974840L64.469762,350.826170L71.240701,356.147824L75.407581,355.886503L80.803758,361.151425L70.763106,367.233521L75.388099,379.488589L70.217966,386.286332L67.483496,392.896128L68.442068,394.932523L60.950958,399.243934L60.363918,405.763207L57.382267,414.766161L50.017955,419.063798L48.515955,425.620357L45.296269,433.176097L28.990530,437.131863L26.215452,432.694912L22.859602,432.122981L19.787371,435.458927L19.102856,439.386372L13.633795,453.973220L18.324295,456.653799L22.496677,456.644170L24.697876,462.659253L24.034545,466.971522L29.124268,472.428620L32.548720,471.751344L34.092960,476.869355L41.396649,488.796529L39.392813,495.866525L36.309642,497.010613L32.156242,494.879779L22.420936,497.855251L20.789930,496.362146L11.919224,496.767455L10.778678,495.604310L8.868763,501.705560L3.168257,501.638797L1.125942,505.079553L8.929734,504.274377L4.585885,507.834312L9.053982,515.667903L16.650720,520.303778L25.474602,522.757420L26.608496,521.213834L36.948624,518.598227L32.801742,526.006374L19.065518,530.780585L16.374213,528.112012L15.423480,531.246361L38.173731,553.938406L46.136800,557.806123L56.561703,553.443051L61.513833,550.472656L66.147071,541.825844L61.141693,538.024924L63.643013,538.320202L66.364753,531.294017L71.628220,535.790861L69.604294,541.259144L77.808925,539.772967L71.106218,544.350449L77.246135,556.610603L75.318391,564.731776L74.585274,572.514898L77.463823,582.933509L80.749609,585.482113L79.613539,591.346922L89.355257,624.022997L90.254664,629.435919L94.537227,639.232870L102.334251,652.898658L106.412469,657.825442L104.782959,658.921383L107.694466,662.032827L114.107242,675.507570L116.266415,684.512564L120.659347,697.353220L124.342603,704.566607L133.402900,717.330725L142.738770,741.129289L144.238736,743.463608L144.488904,749.943339L160.681501,773.504141L169.138361,771.245734L172.659776,767.691359L173.461152,760.110931L183.779072,750.438896L188.781397,740.781445L190.080527,735.921722L197.256253,736.079000L195.461494,717.864323L194.322162,713.209411L195.384569,706.601036L199.297481,698.206029L200.954604,684.126631L196.035395,679.262142L199.028361,679.857691L196.468178,670.423628L196.836702,663.019138L194.834419,658.711762L194.007349,650.249437L196.301715,643.378296L199.970170,640.509811L204.074445,643.268672L206.690313,641.224434L209.586736,632.933593L211.808795,631.823223L216.745896,633.066888L223.493870,629.612402L224.791932,619.515368L230.361763,614.902963L243.794927,601.642880L248.420433,599.079492L253.868773,590.880064L262.329504,573.839326L277.127507,571.381176L279.815540,566.832416L284.022989,563.302693L286.276291,557.605997L284.530857,553.962248L284.038737,546.498491L286.176382,543.926418L294.420581,541.482920L301.180430,533.871114L304.852306,542.416582L307.440479,533.837850L308.962710,535.223974L310.716520,543.159596L313.780435,542.226069L313.693993,533.801838L310.626516,521.204216L308.701663,519.017398L309.915988,514.986614L305.556795,513.052036L306.331723,510.450462L302.582848,507.348131L304.300615,502.634818L303.466463,496.886563L293.726837,492.462676L292.026597,489.449630L293.239420,486.054686L298.201960,480.885268L303.847005,480.646799L299.452363,475.991756L290.521698,470.663658L289.703803,464.395600L294.067298,460.746414L291.410589,456.119585L310.471580,467.505946L311.396553,462.935896L315.101642,467.863659L316.711385,478.944236L325.620289,481.471935L337.900100,480.460857L341.319724,481.634196L355.294482,483.455717L353.174967,494.083645L350.905584,494.689111L350.428626,498.497701L343.242479,499.293735L340.859143,507.143291L344.974965,516.544759L349.442265,519.322360L352.010200,517.068766L353.186585,509.549842L357.444595,506.404549L359.591313,514.510093L363.352300,523.114671L366.120694,532.894677L371.011127,536.291088L374.309110,532.210809L374.810725,517.087806L373.016062,502.539619L376.462240,500.899988L384.554825,503.597532L389.700897,483.508109L387.028088,476.993350L391.015188,468.088617L390.520221,456.210077L394.607683,454.569408L403.507680,445.036096L411.537403,443.577074L418.108064,448.097615L412.674896,439.987218L416.525489,434.110238L416.780758,430.993774L416.735169,428.703924L404.650526,424.510716L400.098702,425.401246L402.056403,417.155147L395.276175,413.957335L398.212747,412.244669L392.791510,407.408099L386.668997,411.193582L384.094584,414.613878L375.638108,412.511141L374.189489,410.575122L368.220354,412.910701L365.921347,417.702379L362.053752,420.572782L354.841634,421.748721L350.724743,429.469184L349.748908,433.285745L345.007649,435.987908L339.925930,437.189007L335.236121,436.553101L334.736436,438.242440L341.405923,441.584181L344.895961,451.054337L333.575005,453.496249L324.412876,453.562862L319.038717,451.502656L316.564183,453.920689L308.948498,454.373822L297.846738,449.895448L296.544259,444.840568L296.652206,444.174240L292.860894,432.242208L289.356216,430.584010L283.371183,434.786205L284.248591,435.244479L283.302043,441.355391L283.893681,447.925936L288.003176,454.297579L284.944554,459.153315L273.474101,459.758990L271.747385,456.772984L267.456611,459.620771L260.968423,456.310363L256.459618,455.470877L254.200673,457.064019L249.843045,451.970007L246.022555,454.221336L241.281072,452.251416L233.210662,443.815480L218.322653,441.631878L212.067481,441.979963L205.847006,441.012128L204.243241,437.479705L200.291761,438.023147L191.742078,434.972700L179.914030,426.191860L169.794562,420.782226L165.999122,420.568140L161.766253,418.187836L163.767200,410.061463L162.348924,407.845603L164.528972,401.742685L169.733340,395.165136L170.968385,394.766575L157.759934,387.638313L152.005866,382.605049L147.277545,382.182924L141.023530,377.012450L136.247726,375.034358L133.854483,375.788502L133.776699,370.664608L132.074784,369.483144L123.582558,354.797807L129.395571,355.910462L131.933093,357.840020L139.181612,352.519737L135.546369,347.270262L135.534718,344.211595L127.727795,339.971469L126.364924,329.529481L131.895429,329.505547L131.925195,322.328401L133.997287,322.693191L135.771847,318.349594L138.046154,318.416960L139.198351,314.344507L138.356887,306.849499L139.350707,305.108705L136.080452,302.780919L134.092523,304.895861L128.406035,301.178198L121.828188,295.327721L107.210985,301.381724L102.661888,304.142208L101.926962,305.464738Z M389.953019,691.486425L392.459293,685.279802L391.302376,680.076726L389.256447,681.963513L388.255918,699.907033L391.256820,701.791027L392.243258,697.767626L389.953019,691.486425Z " data-iso3="IND"/><path d="M944.353280,339.647818L945.930045,332.022826L952.080192,321.574318L946.498615,319.421807L945.743171,312.156143L947.967217,311.302410L949.812048,316.896565L966.789987,318.532272L969.865412,318.291802L973.418321,310.341818L977.436019,317.974418L979.709277,319.541887L981.288326,313.737345L979.356078,311.509796L984.518242,307.777397L984.466785,301.483349L989.777289,302.679335L988.715400,306.568940L996.875571,308.439261L995.366920,305.804985L996.996235,300.756742L999.388183,300.514527L990.519906,290.761552L987.391916,271.052921L979.789143,259.563954L984.140409,253.138262L981.499658,248.588774L980.772321,242.912931L983.564258,242.438005L975.359201,225.776584L964.800266,216.633834L956.300924,207.087197L954.346306,202.216334L945.075005,199.939480L946.297293,204.798975L954.151193,206.201279L954.901724,211.061631L951.020539,209.014648L947.899872,209.967655L944.819496,205.586124L943.341322,212.559041L940.182242,215.699636L946.354137,222.155965L946.148891,228.065558L950.922229,229.404381L956.476853,246.510613L955.668635,250.495999L957.588366,257.508761L952.396430,264.148314L953.073815,267.468278L946.809979,275.926078L940.351867,279.072756L939.640194,282.016029L936.348130,281.394130L933.446102,276.013493L931.132263,276.460249L932.705340,268.525443L927.773961,271.077043L927.812364,275.222050L930.517996,278.213295L931.458497,283.623601L927.476932,295.832138L931.012629,299.225879L920.078719,303.013194L920.269767,300.475809L901.401382,303.957070L889.650584,302.354948L879.694661,315.779839L871.309588,323.489764L868.110407,322.457827L871.935244,329.103184L876.167539,331.166262L882.053010,328.873405L889.179463,323.499452L892.574467,326.511472L898.960389,323.936155L899.842131,325.475902L902.912880,321.737684L910.523045,321.953796L913.108761,317.892506L919.924285,316.723471L923.889265,318.868793L928.616942,317.483624L930.806952,322.203385L930.092302,327.781194L937.128354,335.058699L944.353280,339.647818Z M924.207582,326.612051L924.305327,319.782226L922.088985,324.674824L924.207582,326.612051Z M885.641234,430.545929L888.190201,423.988533L882.589579,427.477908L885.641234,430.545929Z M875.207367,352.229689L876.609981,356.533026L874.574402,362.348267L875.500799,368.102034L878.635483,370.365668L885.279310,378.511459L882.419088,373.426026L884.491784,371.950488L887.418927,375.745799L887.580218,381.238915L890.792589,379.128094L892.307002,373.312106L894.774622,374.920446L893.087831,366.141764L892.458307,354.170280L894.890914,348.255921L890.141693,342.676743L885.527534,342.772141L885.761576,337.762434L881.501041,335.608267L880.968841,337.232259L875.947850,336.468154L867.971676,330.893608L863.040067,335.737262L860.458044,342.180788L856.228200,340.654516L856.815383,343.429976L863.402280,346.765474L865.838554,349.888733L859.410579,345.612562L859.545805,347.636944L865.493381,353.142893L869.823515,354.003885L871.593804,350.987902L865.582402,345.379113L866.390091,343.868425L875.207367,352.229689Z M936.617672,202.048919L938.471730,199.670198L945.968990,195.510034L936.018781,189.892818L933.658712,190.188659L927.652684,186.253439L930.806555,182.434092L937.960164,187.079703L938.206758,185.828922L946.546628,182.222005L955.676787,186.322719L973.100696,193.236437L970.023263,184.726006L971.775654,177.886432L976.478285,175.455332L983.050079,176.541702L991.137365,168.907102L985.180777,169.716865L977.549393,162.816245L974.313207,153.163273L972.678973,158.067287L965.415940,159.489588L942.049087,150.448942L933.204427,145.392674L914.949578,133.797333L913.479433,139.156810L919.903075,144.713747L924.697413,153.937279L926.785829,162.471273L931.706899,172.979190L925.437796,172.261231L919.054871,169.298175L923.854180,175.377068L920.259037,184.214025L921.065252,187.070574L930.635671,193.893839L931.085327,197.614475L936.617672,202.048919Z M909.773741,351.963338L909.050660,341.374897L912.840562,338.311536L917.599366,338.846125L923.100244,342.896083L923.186613,336.095546L926.880089,332.792841L922.103478,326.568937L915.973129,323.969694L910.956019,323.317157L906.655362,325.566907L906.382615,330.161472L903.128650,331.305109L897.330197,330.008106L897.902752,334.064700L894.622199,339.156286L898.631351,341.909078L901.336887,348.869971L904.343355,351.268681L909.773741,351.963338Z M944.223545,263.746372L945.759514,263.223228L942.671276,254.779326L941.726849,257.344542L944.223545,263.746372Z M869.864408,360.776091L872.107767,358.267725L868.403253,355.577577L869.864408,360.776091Z M890.922990,394.182471L891.346692,391.681173L887.369708,391.908890L890.922990,394.182471Z M894.697974,392.198333L895.794267,391.590942L893.856701,384.777624L894.697974,392.198333Z M849.711504,354.065663L851.158335,353.009646L848.724703,350.416947L849.711504,354.065663Z M870.856496,465.502379L871.646493,459.363165L875.395382,457.297739L876.090087,452.174325L869.719765,459.496766L870.856496,465.502379Z " data-iso3="JPN"/><path d="M809.608688,343.720688L817.044793,341.560847L817.421769,338.922423L813.954139,337.604800L808.375303,339.256433L809.608688,343.720688Z M780.814858,263.158380L787.992482,276.756385L789.195070,277.528534L784.444167,281.340771L786.341693,282.147159L795.167904,295.065801L797.915630,296.709759L794.970315,301.367025L796.745120,308.903022L801.908181,320.680784L809.853880,322.678687L810.106790,319.234183L818.489043,317.113261L815.986125,314.108412L821.855824,312.860079L829.027577,314.782946L826.637620,311.770293L833.459404,310.478701L835.091038,311.910068L837.738271,308.714702L836.473613,295.162857L831.954595,291.708087L830.583578,286.338416L822.108508,272.314562L807.223078,259.128600L799.828780,251.493867L797.024960,254.436618L783.976848,254.721442L781.846187,256.353946L780.814858,263.158380Z " data-iso3="KOR"/><path d="M481.832033,563.800650L484.101311,563.288466L488.900878,572.224409L489.714218,577.597795L494.200263,578.631581L495.633778,576.311725L501.700821,577.998074L500.807023,580.237001L502.786827,585.096204L503.579383,592.309298L501.079996,596.297081L503.987158,603.100859L501.567214,608.122679L504.872603,613.335507L512.680568,603.157981L517.262178,600.485108L526.586983,606.459861L532.085689,603.663116L534.316141,597.106969L543.401609,599.289262L544.486891,598.422047L553.541913,609.695242L559.347326,614.131061L560.867388,629.288195L566.321209,636.192854L572.837749,642.244239L575.487290,643.063854L576.211080,648.124253L575.122301,652.031547L577.471043,655.695666L575.992380,665.291933L572.680039,666.658360L572.812280,667.826829L575.477932,670.828611L586.785280,674.078057L584.943386,666.526118L592.153131,662.431471L597.202660,667.345514L606.774641,660.808249L606.997793,660.613564L606.300312,658.921383L607.989728,650.906942L600.620928,644.398083L599.303701,640.776549L602.051851,639.875970L596.522834,633.219356L589.856128,630.188967L586.881868,621.297449L582.044471,616.203713L578.123252,614.336068L570.523749,606.297948L570.472179,604.987660L562.949728,598.631621L558.459530,591.418434L540.932238,581.907408L544.023618,578.412419L542.444699,576.459412L547.841689,575.049188L549.705091,576.568991L553.876895,573.367723L554.295326,566.608437L550.420368,566.036912L550.475901,563.864788L543.834594,555.481643L539.902249,553.033580L534.482402,558.501412L530.486508,555.596014L526.231620,555.200605L521.079337,547.451169L521.368326,540.935221L516.707339,541.282954L515.709476,537.843826L509.206547,531.761000L506.831355,528.706417L506.201400,527.992980L501.033108,526.906736L498.698098,530.708233L503.826217,547.265304L505.648445,548.432496L497.367073,549.551706L494.405546,542.854188L494.430796,542.960319L490.405652,547.455977L487.131058,554.924375L482.450172,558.587330L481.873005,563.645654L481.832033,563.800650Z " data-iso3="LAO"/><path d="M478.334289,779.807682L479.823868,774.042546L477.479531,772.422588L478.334289,779.807682Z M542.989124,713.298429L539.255748,701.803214L539.833867,699.725904L536.545177,696.262160L534.427693,689.653693L531.804288,685.275009L531.382931,680.053056L533.899731,680.119617L537.158517,673.830376L542.966382,666.997651L569.487105,666.130553L571.809505,668.593909L572.680039,666.658360L575.992380,665.291933L577.471043,655.695666L575.122301,652.031547L576.211080,648.124253L575.487290,643.063854L572.837749,642.244239L566.321209,636.192854L560.867388,629.288195L559.347326,614.131061L553.541913,609.695242L544.486891,598.422047L543.401609,599.289262L534.316141,597.106969L532.085689,603.663116L526.586983,606.459861L517.262178,600.485108L512.680568,603.157981L504.872603,613.335507L501.567214,608.122679L503.987158,603.100859L501.079996,596.297081L503.579383,592.309298L502.786827,585.096204L500.807023,580.237001L501.700821,577.998074L495.633778,576.311725L494.200263,578.631581L489.714218,577.597795L488.900878,572.224409L484.101311,563.288466L481.832033,563.800650L479.581671,561.983353L475.591753,564.441144L472.270039,563.126406L471.045950,568.647192L468.675779,567.594465L465.739933,574.110782L452.271918,576.240221L449.985219,580.151396L451.747104,594.315167L445.411488,594.758186L452.809285,604.477877L452.395172,607.026936L466.613715,622.255335L469.164512,629.502631L474.135225,631.894746L472.400194,636.283255L469.529096,637.608032L471.210143,648.400608L465.730156,651.855196L467.512378,658.864259L472.951043,666.154404L478.973157,670.952461L483.346236,677.637273L484.662735,686.313591L483.396008,686.842573L485.221531,692.722094L489.192404,697.214981L492.559271,709.197688L493.712960,710.088750L482.947371,732.453038L478.652295,747.761201L475.961850,763.141188L477.353369,771.779379L482.688766,769.392318L485.943274,775.586244L487.140586,774.752480L492.761588,781.513424L494.249792,786.392371L498.590322,790.432737L499.904967,794.830505L504.211385,798.637433L509.351374,797.889372L510.577391,800.533753L516.322484,801.286549L522.087498,805.655704L522.373495,810.086816L520.608546,813.250549L522.957088,816.237958L529.236421,811.354203L533.223146,814.394049L536.900040,805.873765L532.150864,801.863071L527.542657,795.106841L520.360106,795.459414L516.600057,793.491627L510.917331,785.248858L506.782713,768.644272L502.460207,765.237612L501.223068,756.942487L499.307127,753.135571L491.080994,754.603060L491.838836,751.734790L488.741537,745.174066L488.048750,735.045071L492.738885,726.549967L492.200422,722.180990L498.520746,703.856670L496.885353,694.899412L498.418053,689.120083L496.544547,683.609489L504.866053,680.404853L510.130212,684.626972L510.459721,695.914312L525.432710,695.837987L529.401818,697.829540L532.594915,703.599397L536.570502,705.319417L542.625732,711.370365L542.989124,713.298429Z " data-iso3="THA"/><path d="M606.997793,660.613564L607.157689,663.152592L605.501050,668.231815L610.615595,680.548428L611.845590,698.434677L610.131660,702.660829L608.167279,701.360166L603.464993,705.562459L596.177980,709.249836L595.624886,710.998672L589.820979,710.846187L588.936597,713.075967L591.397490,722.333475L593.831602,728.098468L586.757272,723.796033L580.943553,726.793024L577.071540,724.925323L577.261465,728.855903L574.371669,732.052884L567.869658,734.068264L567.989526,734.964118L576.269495,739.456954L574.864663,748.861814L575.188454,761.973860L577.647395,765.771239L591.058139,754.036100L595.335880,752.359003L594.654602,746.279454L600.945122,747.575410L600.904832,745.984034L594.477139,739.161585L600.861372,744.368875L602.449551,737.960938L597.942734,736.088438L603.287434,734.802031L606.490185,731.957683L613.971175,732.724737L620.983252,729.322959L621.871792,726.187894L625.785566,725.034934L635.444524,718.026230L634.959838,713.600128L638.186552,711.732439L636.472723,700.359503L638.579143,700.312000L637.827102,693.441460L634.892850,682.335217L634.138275,674.621281L630.053525,660.531918L625.833537,650.806759L618.999698,643.845222L613.377561,634.910939L609.082738,633.333773L596.940527,622.917615L595.128771,620.053806L582.239221,609.199517L584.064480,609.028016L580.889870,602.152656L576.498296,599.103309L568.016304,588.374087L569.728280,581.832989L570.168831,571.147800L576.866721,566.236851L580.781037,558.225180L577.823217,552.604715L585.876294,553.819228L589.910743,547.060568L593.527400,543.664412L597.447234,544.383711L595.918146,543.338072L591.496938,541.925991L586.498641,542.268947L572.439640,529.250542L575.016647,521.771231L571.522473,520.022833L567.681857,520.861381L564.474936,518.631498L560.637043,519.884584L555.705460,517.240293L551.114673,511.899139L550.237856,513.876458L544.540021,516.635153L545.585294,519.431953L538.924791,523.719714L534.773872,521.909312L533.573720,526.941540L528.138015,522.050272L524.115820,522.085602L518.269340,527.230864L514.050030,523.648206L510.235596,524.643952L507.322081,528.150086L506.831355,528.706417L509.206547,531.761000L515.709476,537.843826L516.707339,541.282954L521.368326,540.935221L521.079337,547.451169L526.231620,555.200605L530.486508,555.596014L534.482402,558.501412L539.902249,553.033580L543.834594,555.481643L550.475901,563.864788L550.420368,566.036912L554.295326,566.608437L553.876895,573.367723L549.705091,576.568991L547.841689,575.049188L542.444699,576.459412L544.023618,578.412419L540.932238,581.907408L558.459530,591.418434L562.949728,598.631621L570.472179,604.987660L570.523749,606.297948L578.123252,614.336068L582.044471,616.203713L586.881868,621.297449L589.856128,630.188967L596.522834,633.219356L602.051851,639.875970L599.303701,640.776549L600.620928,644.398083L607.989728,650.906942L606.300312,658.921383L606.997793,660.613564Z " data-iso3="VNM"/></g></svg>