<?xml version="1.0" encoding="utf-8"?><!DOCTYPE svg  PUBLIC '-//W3C//DTD SVG 1.1//EN'  'http://www.w3.org/Graphics/SVG/1.1/DTD/svg11.dtd'><svg enable_background="new 0 0 1000 786" height="786px" pretty_print="False" style="stroke-linejoin: round; stroke:#000; fill: none;" version="1.1" viewBox="0 0 1000 786" width="1000px" xmlns="http://www.w3.org/2000/svg" xmlns:xlink="http://www.w3.org/1999/xlink"><defs><style type="text/css"><![CDATA[path { fill-rule: evenodd; }]]></style></defs><metadata><views><view h="786.529740862" padding="0" w="1000"><proj flip="auto" id="robinson" lon0="98.6220681748"/><bbox h="748.63" w="953.03" x="1008.31" y="-892.41"/></view></views></metadata><g class="" id="world"><path d="M750.801079,382.578459L750.482707,380.954963L739.279883,376.508218L746.055267,381.227052L750.801079,382.578459Z M619.642610,615.922042L621.842098,611.821714L631.212163,607.209059L632.411718,598.569998L637.010150,588.267118L630.976650,580.976254L630.002150,584.250656L626.685120,582.435458L614.111720,586.324650L610.457132,585.207090L611.325723,588.847761L603.825230,594.587280L602.550083,599.619309L604.860842,608.990681L608.459743,611.387309L619.642610,615.922042Z M494.740878,541.657726L505.200153,538.110704L506.459049,540.146029L512.448747,534.874726L516.569470,534.838531L522.138330,539.849617L523.367881,534.694119L527.620482,536.548869L534.444141,532.156073L533.373263,529.290762L539.210674,526.464489L540.108969,524.438734L544.812214,529.910726L549.864601,532.619792L553.796509,531.336010L557.081987,533.620517L561.016683,532.761428L564.596451,534.552655L561.956317,542.215181L576.359711,555.552487L581.480447,555.201130L586.009958,556.647803L589.071012,555.820746L590.829290,553.902885L594.026057,555.444962L592.539506,551.230136L602.229323,558.251010L616.149357,558.222362L612.906081,563.716312L613.445632,568.327676L619.176012,579.619668L622.188451,579.531809L627.802546,575.432574L623.782856,572.236198L624.281409,569.098695L621.150756,568.966947L620.978499,565.063004L627.172950,562.184126L632.249430,556.796775L641.658054,556.987028L642.146410,552.834260L661.275326,549.535521L661.876676,544.913971L668.337119,544.893764L666.701098,529.202914L672.491253,540.482653L679.539647,537.930105L687.602397,539.247844L689.435586,535.001611L693.088518,532.746681L694.206330,536.226805L700.760042,535.455624L710.616820,532.170686L711.409723,527.435925L713.219957,526.757243L715.134924,520.196124L728.256524,512.984663L730.925214,508.965588L726.636330,506.528618L728.366734,502.640850L737.803045,503.358977L738.673841,500.452597L736.538443,496.813127L741.000529,497.966121L738.411658,491.594955L746.086049,487.070166L747.880472,478.508211L742.378309,465.846402L751.324456,465.777820L750.246643,455.097563L753.267220,457.720935L753.791446,442.640014L756.807094,443.426109L757.889336,438.061792L762.030456,440.599625L761.781101,426.866763L763.351062,427.056855L760.830997,420.262358L765.825669,421.763097L762.791693,414.417347L764.392177,410.328042L757.425108,408.668632L748.032155,402.715088L742.139707,406.007677L738.391157,402.836725L743.654046,401.528608L750.474013,393.255459L754.703468,393.105025L754.510190,390.956932L750.227995,385.873585L740.821378,379.720157L726.834339,373.530138L724.108061,374.726728L716.039235,370.927698L717.744533,369.389993L723.932009,374.172235L726.583360,371.409373L735.728364,375.971486L740.012919,375.271406L750.178780,378.290990L747.842031,374.527329L739.769215,370.120026L738.736780,366.659236L728.507233,361.857063L726.947638,355.323175L721.480714,349.913237L708.710061,332.559496L688.791673,322.799847L688.059031,319.239369L694.060971,309.086787L693.182024,300.300580L696.479104,301.225231L701.830495,299.684204L700.253029,294.193330L702.761891,295.188375L702.960182,291.889817L716.374517,284.257247L721.548007,286.894149L719.689780,278.274142L720.828799,277.115944L713.555017,276.917178L711.607313,274.432626L705.168306,276.067315L696.415406,272.058589L687.891716,270.346123L682.707999,276.673644L680.306628,277.970815L680.657821,281.695510L675.255222,282.172902L668.197352,279.556974L665.684558,273.806728L666.473938,271.492566L661.452646,265.535678L649.343684,264.010033L637.123884,255.694428L635.502517,247.021121L637.117008,245.289001L641.682915,245.769678L644.621474,248.028038L647.581288,245.396898L653.064406,246.059128L655.124054,241.688862L655.982713,232.641712L662.568174,228.990928L666.049326,225.019069L667.248843,217.061025L671.828999,215.000946L680.298221,217.257433L688.916457,222.166824L683.719016,235.427757L685.963306,237.786023L682.470216,239.655359L692.431940,242.006990L687.670042,253.376797L694.448605,250.481354L698.997708,246.260347L697.970581,245.298767L706.622407,236.806112L710.000089,236.567345L713.776521,232.860474L719.398329,234.483751L726.298179,222.884263L732.287647,220.372950L734.211038,216.255795L738.272126,213.871729L740.256352,205.294103L739.302290,203.182577L742.632147,200.171146L750.923380,205.736829L762.466879,207.136573L764.051273,203.648373L756.586115,196.638152L768.645037,196.278044L770.441458,189.085851L773.971299,190.485045L772.199480,180.262669L778.644340,181.649396L783.585495,185.118109L790.536596,181.196813L780.835447,161.831060L771.065329,150.945167L767.429342,148.329900L773.246034,146.266228L775.125378,139.923488L793.147896,145.361869L791.253273,137.098086L793.785849,134.997914L791.622988,131.583214L790.951177,126.155736L792.590720,124.116294L789.317348,120.340267L789.564980,117.167819L784.515724,106.856180L787.456145,98.808405L781.433125,94.343344L780.384178,90.352209L774.800082,87.555868L758.423212,94.099806L757.044465,99.214331L744.360785,100.069420L737.937706,99.820769L732.330831,95.890495L726.957363,89.058723L719.120171,83.705702L705.288271,75.675955L684.979104,69.068318L683.829717,67.205457L670.922645,66.958552L663.731240,62.786375L660.327821,56.369459L653.261117,52.135045L652.803436,50.071108L641.055171,41.958879L630.859728,31.904683L623.907775,27.218461L622.297989,23.774480L608.913886,14.594638L607.510963,12.884009L600.714900,11.221164L596.898668,8.628408L581.400738,6.056427L569.409519,1.206599L560.581296,0.000000L557.465010,1.109006L547.769787,1.628941L539.562915,3.988287L532.667204,4.629439L530.468513,11.058217L528.114614,13.159106L532.457525,16.329561L535.171030,15.359378L540.123809,17.057132L545.674447,23.554780L545.856970,27.710334L543.754085,35.612036L544.267057,49.863401L550.411032,58.151170L542.235865,61.373222L537.219872,67.789885L527.007770,66.084724L518.202309,62.902325L520.007949,85.303650L523.124495,89.908179L520.292119,91.913157L523.220484,95.632637L530.008701,99.543981L532.740065,96.334738L541.066285,96.172293L550.461376,100.083653L552.529512,94.042561L562.941005,94.329114L568.133664,98.154237L574.154410,100.007175L579.176404,104.143399L587.820005,108.766386L592.986369,113.006264L595.066399,116.418688L588.267121,118.064947L581.751380,115.731486L576.341982,116.752831L572.523126,115.960669L561.878701,118.685113L563.326169,122.357319L553.171624,123.534790L553.073600,133.861828L549.144169,137.877172L539.276046,139.173541L534.308517,142.096297L531.516826,146.763425L527.267545,150.046821L519.642258,149.152760L511.215553,146.961965L507.263453,144.333788L500.952582,144.144289L499.078466,145.698076L500.255901,157.061678L510.205303,163.750189L511.301549,168.270482L503.371020,174.303244L500.443109,183.456740L487.585117,189.369354L482.912199,188.887322L463.147271,189.705073L461.271176,188.755127L445.470838,195.373320L433.814220,203.847979L426.223004,202.436426L424.526950,198.790646L408.720856,198.619732L396.547375,193.943345L386.985151,192.717510L381.049876,188.013191L365.879104,185.151239L358.435034,184.929448L347.875807,186.973933L333.758055,185.987032L313.287362,183.121557L302.685786,184.249687L300.962546,181.262697L291.392040,174.944337L281.042130,162.835489L276.938360,159.694536L264.294924,155.017534L245.431606,146.351474L238.998489,145.532222L228.747246,145.489748L218.880905,144.537459L210.283938,142.077346L206.736685,142.224334L200.444358,133.138892L202.529204,128.465669L198.805865,123.196358L198.864041,118.770999L185.004190,105.905771L180.398005,99.844840L171.315103,97.198987L166.192948,93.536486L152.172499,90.505008L150.601740,88.013668L140.725039,84.335309L141.264098,82.113083L135.394994,79.105651L134.159169,74.130496L129.585954,75.747620L121.435802,75.276133L123.338750,81.974869L122.308127,85.036446L112.204074,87.335955L113.988614,97.652702L119.066722,105.165414L118.741089,110.442423L109.622352,112.714989L98.949732,111.812663L91.919416,110.389834L85.220730,107.596490L84.569419,125.641212L86.355008,137.245517L89.722122,137.787037L90.549251,143.532945L87.650300,141.731108L77.224014,140.080037L68.113299,143.471171L57.802869,145.286152L58.583311,149.223821L61.720615,148.698806L67.920584,160.798316L77.384997,171.776944L78.092482,177.320249L75.148871,179.253473L78.736817,181.715609L74.837583,182.805577L74.590791,185.925493L79.891820,195.676311L67.715107,200.351568L60.399424,204.694431L55.822057,212.355997L47.096205,214.067701L39.832566,212.967688L36.297408,218.308033L35.311161,224.213926L29.701917,224.392153L28.172651,225.911858L21.856563,220.041473L8.606365,228.231284L2.280622,230.356809L4.120895,238.205713L0.636513,241.014221L4.320314,251.150691L9.865776,257.017377L14.633857,254.515655L23.429387,259.675360L22.838679,261.065155L32.986258,277.125978L28.527918,280.481964L22.581365,281.267799L34.136853,284.381523L43.980755,289.013941L50.747995,299.137417L66.824817,309.543311L76.122660,311.531885L85.331318,308.764437L89.974365,306.044397L100.306588,302.562135L107.045566,308.555926L112.871352,312.364657L114.907978,310.197908L118.258342,312.582716L117.240177,314.366153L118.102254,322.044760L116.921832,326.216973L114.591813,326.147956L112.773783,330.597955L110.650932,330.224229L110.620438,337.577188L104.954456,337.601708L106.350712,348.299485L114.348876,352.643479L114.360812,355.777071L118.085105,361.155139L110.659024,366.605748L108.059343,364.628924L102.103932,363.489013L110.804186,378.534085L112.547791,379.744491L112.627481,384.993901L115.079350,384.221283L119.972142,386.247830L126.379358,391.544962L131.223505,391.977428L137.118525,397.133987L150.650533,404.436864L152.572263,407.588595L158.562740,400.673068L166.088467,402.029400L168.094359,406.625338L174.469326,409.023902L179.965872,413.823299L187.950981,416.842537L193.035769,422.645220L198.897396,420.657052L201.427746,421.802214L203.321675,426.793579L213.575610,433.421474L218.628103,437.559159L226.604272,438.705859L227.563935,437.134549L233.842597,445.178779L241.396556,441.258586L248.777818,443.728779L251.727939,446.228518L261.310326,444.617209L265.806776,445.436824L271.938419,441.131691L275.528948,442.830509L279.413134,455.054830L279.668155,452.371946L286.440344,440.658143L291.888516,437.437056L297.678231,438.588839L298.603388,441.717406L306.425303,442.230004L318.942209,447.247003L323.746900,447.898486L328.953101,446.667964L333.810504,443.899609L334.810243,439.989556L339.027983,432.079972L346.416770,430.875226L350.379106,427.934509L352.734431,423.025453L358.849786,420.632661L360.333891,422.616106L368.997519,424.770352L371.634996,421.266271L377.907487,417.388058L383.461523,422.343106L380.453017,424.097726L387.399335,427.373872L385.393678,435.821970L390.057004,434.909624L396.731765,437.280876L403.877926,437.978689L406.452207,433.962941L414.962369,441.004832L415.187776,443.660393L420.207953,451.409801L425.361827,450.457525L430.116485,466.984935L429.338878,480.956685L427.843969,484.333670L424.632876,484.900521L418.210649,500.403727L418.828333,505.708242L422.994069,510.591753L422.429078,516.075452L430.234108,511.256100L440.252230,510.643458L438.213546,516.768707L442.146664,522.544536L443.027658,527.738561L452.825045,529.515327L451.065766,535.528717L452.583384,539.653003L450.172210,545.709492L462.713680,547.726350L463.916547,553.717723L470.503496,556.757773L475.609575,557.221376L481.018238,552.658579L485.044756,563.013647L493.528991,561.867020L491.662125,560.671236L486.408386,543.708580L488.800595,539.813961L494.095491,540.926813L494.740878,541.657726Z " data-iso3="CHN"/><path d="M942.980436,347.967906L944.595826,340.156131L950.896629,329.451674L945.178324,327.246435L944.404375,319.802789L946.682901,318.928143L948.572924,324.659333L965.966758,326.335109L969.117520,326.088749L972.757461,317.944020L976.873577,325.763590L979.202522,327.369456L980.820252,321.422725L978.840671,319.140609L984.129288,315.316781L984.076571,308.868552L989.517163,310.093835L988.429261,314.078721L996.789325,315.994857L995.243718,313.296052L996.912945,308.124146L999.363487,307.875998L990.277970,297.884111L987.073357,277.692694L979.284344,265.922290L983.742200,259.339193L981.036761,254.678260L980.291607,248.863380L983.151935,248.376820L974.745886,231.307257L970.072488,226.505875L963.928296,221.940544L955.220753,212.160051L953.218254,207.169870L943.719841,204.837242L944.972071,209.815776L953.018361,211.252431L953.787278,216.231844L949.811019,214.134718L946.613907,215.111069L943.458073,210.622207L941.943689,217.765934L938.707223,220.983462L945.030307,227.597947L944.820033,233.652302L949.710300,235.023921L955.400992,252.549192L954.572975,256.632204L956.539732,263.816753L951.220613,270.618949L951.914592,274.020240L945.497316,282.685224L938.881004,285.908984L938.151898,288.924356L934.779191,288.287223L931.806073,282.774781L929.435555,283.232481L931.047166,275.103302L925.994987,277.717406L926.034331,281.963950L928.806240,285.028470L929.769780,290.571308L925.690682,303.078908L929.312990,306.555782L918.111240,310.435873L918.306968,307.836331L898.976380,311.402870L886.937731,309.761502L876.737926,323.515252L868.147450,331.414041L864.869901,330.356826L868.788433,337.164969L873.124402,339.278584L879.154046,336.929561L885.823088,340.229691L886.455070,331.423967L889.933239,334.509770L896.475591,331.871367L897.378933,333.448832L900.524903,329.619042L904.565279,328.664344L908.321489,329.840448L910.970545,325.679671L917.953024,324.481999L922.015130,326.679874L926.858617,325.260773L929.102274,330.096151L928.370118,335.810595L935.578527,343.266372L934.979479,343.976412L942.980436,347.967906Z M922.341245,334.612812L922.441385,327.615682L920.170750,332.628130L922.341245,334.612812Z M882.830167,441.092678L885.441574,434.374650L879.703758,437.949502L882.830167,441.092678Z M872.140710,360.857985L873.577683,365.266738L871.492240,371.224430L872.441330,377.119143L875.652802,379.438227L882.459378,387.783559L879.529091,382.573553L881.652560,381.061870L884.651407,384.950151L884.816649,390.577828L892.187288,384.104581L890.459177,375.110854L889.814233,362.846114L892.306430,356.786875L887.440870,351.071028L882.713682,351.168763L882.953457,346.036338L878.588555,343.829402L878.043318,345.493175L872.899332,344.710353L864.727771,338.999251L859.675357,343.961556L857.030084,350.562924L852.696625,348.999265L853.298192,351.842713L860.046443,355.259918L862.542396,358.459685L855.956960,354.078764L856.095499,356.152735L862.188768,361.793560L862.226661,359.990450L866.624974,362.675642L868.438628,359.585779L862.279970,353.839596L863.107444,352.291903L872.140710,360.857985Z M935.055336,206.998354L936.954811,204.561364L944.635725,200.299291L934.441774,194.544475L932.023892,194.847563L925.870739,190.815945L929.101868,186.903038L936.430714,191.662449L936.683348,190.381029L945.227513,186.685756L954.581327,190.886922L972.432055,197.969999L969.279238,189.251095L971.074555,182.243978L975.892383,179.753324L982.625161,180.866306L990.910555,173.044688L984.808053,173.874287L976.989729,166.804628L973.674269,156.915194L972.000002,161.939338L964.559053,163.396480L940.619799,154.134373L931.558479,148.954245L912.856455,137.074862L911.350297,142.565626L917.931294,148.258687L922.843075,157.708161L924.982649,166.451206L930.024267,177.216526L923.601594,176.480981L917.062312,173.445341L921.979186,179.673144L918.295976,188.726573L919.121940,191.653096L928.926798,198.643505L929.387469,202.455283L935.055336,206.998354Z M907.553829,360.585110L906.813035,349.737292L910.695776,346.598890L915.571153,347.146575L921.206781,351.295742L921.295266,344.328617L925.079218,340.945008L920.185598,334.568642L913.905079,331.905727L908.765069,331.237206L904.359062,333.542066L904.079634,338.249180L900.745958,339.420833L894.805465,338.092057L895.392046,342.248023L892.031132,347.464334L896.138493,350.284558L898.910304,357.415968L901.968758,357.152606L901.990420,359.873437L907.553829,360.585110Z M942.847523,270.207162L944.421118,269.671202L941.257230,261.020457L940.289668,263.648511L942.847523,270.207162Z M866.666869,369.613742L868.965181,367.043931L865.169920,364.287884L866.666869,369.613742Z M888.241307,403.838452L888.675387,401.275882L884.600982,401.509177L888.241307,403.838452Z M892.108763,401.805710L893.231911,401.183440L891.246882,394.203222L892.108763,401.805710Z M846.020294,362.738934L847.502568,361.657049L845.009321,359.000838L846.020294,362.738934Z M867.683259,476.905428L868.492607,470.615828L872.333330,468.499806L873.045053,463.250888L866.518682,470.752701L867.683259,476.905428Z " data-iso3="JPN"/><path d="M804.935111,352.140547L812.553373,349.927798L812.939584,347.224742L809.387009,345.874843L803.671512,347.566934L804.935111,352.140547Z M775.435941,269.604767L782.789389,283.535871L784.021437,284.326935L779.154155,288.232557L781.098163,289.058699L790.140582,302.293799L792.955617,303.978027L789.938154,308.749378L791.756435,316.469979L797.045971,328.536252L805.186310,330.583096L805.445415,327.054214L814.033001,324.881338L811.468771,321.802882L817.482256,320.523969L824.829690,322.493939L822.381188,319.407487L829.370079,318.084257L831.041682,319.550686L833.753763,316.277046L832.458126,302.393232L827.828408,298.853833L826.423807,293.352625L817.741129,278.985240L802.491062,265.476272L794.915632,257.654517L792.043130,260.669354L778.675388,260.961155L776.492534,262.633649L775.435941,269.604767Z " data-iso3="KOR"/><path d="M586.009958,556.647803L581.480447,555.201130L576.359711,555.552487L561.956317,542.215181L564.596451,534.552655L561.016683,532.761428L557.081987,533.620517L553.796509,531.336010L549.864601,532.619792L544.812214,529.910726L540.108969,524.438734L539.210674,526.464489L533.373263,529.290762L534.444141,532.156073L527.620482,536.548869L523.367881,534.694119L522.138330,539.849617L516.569470,534.838531L512.448747,534.874726L506.459049,540.146029L505.200153,538.110704L494.740878,541.657726L497.174252,544.787136L503.836479,551.018968L504.858786,554.542342L509.633949,554.186091L509.337881,560.861654L514.616376,568.800922L518.975492,569.206017L523.069271,572.182587L528.621883,566.580814L532.650556,569.088844L539.454550,577.677345L539.397656,579.902678L543.367536,580.488203L541.835108,585.958685L542.938855,587.413066L538.664858,590.692753L536.755810,589.135720L531.226613,590.580489L532.844211,592.581338L529.677103,596.161941L547.633748,605.905951L552.233939,613.295834L559.940661,619.807572L559.993494,621.149957L567.779156,629.384981L571.796431,631.298376L576.752326,636.516889L579.799444,645.626216L586.629459,648.730838L592.293916,655.550514L589.478447,656.473154L590.827941,660.183401L598.377248,666.851703L595.718948,672.074942L597.525548,673.378386L595.827607,684.600970L601.067439,697.219293L602.327565,715.543688L600.571650,719.873364L598.559149,718.540841L593.741674,722.846073L586.276157,726.623777L585.709515,728.415453L579.763434,728.259233L578.857388,730.543634L581.378563,740.027916L583.872302,745.934130L576.624678,741.526301L570.668544,744.596707L566.701682,742.683254L566.896259,746.710119L563.935674,749.985414L559.435800,750.088041L557.274388,752.050163L560.106363,756.897306L564.480391,757.731986L564.772467,780.639340L567.291643,784.529741L581.030900,772.507135L585.413429,770.788956L584.715462,764.560481L591.160076,765.888183L591.118799,764.257824L584.533652,757.268251L591.074275,762.603100L592.701358,756.038193L588.084141,754.119824L593.559766,752.801904L592.580920,751.225305L604.505218,750.673725L611.689065,747.188617L612.599370,743.976754L616.609017,742.795551L626.504583,735.615160L626.008024,731.080635L629.313780,729.167195L627.557970,717.515664L629.715989,717.466998L628.945525,710.428156L630.127743,707.723919L625.939396,699.049852L624.502182,686.914834L620.981525,676.712454L616.658163,666.749066L609.656921,659.616997L603.897063,650.463859L599.497033,648.848058L587.057383,638.176743L585.201247,635.242782L571.995951,624.122604L573.865922,623.946901L570.613546,616.903121L566.114395,613.779076L557.424627,602.787029L559.178539,596.085699L559.629883,585.138764L562.745835,584.045644L566.491845,580.107514L570.502047,571.899588L567.471772,566.141443L575.722118,567.385707L579.855397,560.461485L583.560648,556.982136L587.576503,557.719055L586.009958,556.647803Z " data-iso3="VNM"/></g></svg>